<?xml version="1.0" encoding="UTF-8" standalone="no"?>
<svg
   version="1.2"
   viewBox="0 0 399.99997 131.31996"
   width="399.99997"
   height="131.31996"
   id="svg11"
   sodipodi:docname="universidad_de_managua.svg"
   inkscape:version="1.1.2 (0a00cf5339, 2022-02-04)"
   xmlns:inkscape="http://www.inkscape.org/namespaces/inkscape"
   xmlns:sodipodi="http://sodipodi.sourceforge.net/DTD/sodipodi-0.dtd"
   xmlns="http://www.w3.org/2000/svg"
   xmlns:svg="http://www.w3.org/2000/svg"
   xmlns:rdf="http://www.w3.org/1999/02/22-rdf-syntax-ns#"
   xmlns:cc="http://creativecommons.org/ns#"
   xmlns:dc="http://purl.org/dc/elements/1.1/">
  <defs
     id="defs15" />
  <sodipodi:namedview
     id="namedview13"
     pagecolor="#ffffff"
     bordercolor="#666666"
     borderopacity="1.0"
     inkscape:pageshadow="2"
     inkscape:pageopacity="0.0"
     inkscape:pagecheckerboard="0"
     showgrid="false"
     inkscape:zoom="1.2900001"
     inkscape:cx="199.99998"
     inkscape:cy="65.891468"
     inkscape:window-width="1920"
     inkscape:window-height="1011"
     inkscape:window-x="0"
     inkscape:window-y="0"
     inkscape:window-maximized="1"
     inkscape:current-layer="svg11" />
  <title
     id="title2">universidad_de_managua</title>
  <style
     id="style4">
		.s0 { fill: #030304 } 
		.s1 { fill: #672483 } 
	</style>
  <g
     id="Background"
     transform="matrix(0.03123059,0,0,0.03123059,0.0068445,0)">
    <path
       id="Path 0"
       class="s0"
       d="m 55.5,2942.5 0.6,138.5 c 0.4,120.3 0.7,139.9 2.1,149 0.9,5.8 2.3,13.4 3.2,17 0.8,3.6 2.4,9.2 3.6,12.5 1.1,3.3 3.7,8.9 5.8,12.5 2,3.6 5.7,9 8.2,12 2.6,3 7.5,7.7 11.1,10.4 3.5,2.6 9.8,6.5 13.9,8.6 4.1,2.1 11.1,4.9 15.5,6.3 4.4,1.3 11.4,3.1 15.5,3.8 4.8,0.9 14.6,1.4 27,1.4 10.7,-0.1 23.1,-0.7 27.5,-1.4 4.4,-0.7 12.1,-2.3 17,-3.6 4.9,-1.2 11.9,-3.6 15.5,-5.2 3.6,-1.6 9.2,-4.7 12.5,-7 3.3,-2.2 8.7,-6.9 12,-10.5 3.7,-4 7.6,-9.8 10.2,-14.9 2.3,-4.6 5.3,-12.5 6.8,-17.4 1.4,-4.9 3.4,-13.9 4.5,-20 1,-6.1 2.3,-17.9 2.9,-26.3 0.7,-9.5 1.1,-61.9 1.1,-266.2 h 54.8 l -0.2,139.3 c -0.2,123.7 -0.4,140.5 -1.9,150.7 -0.9,6.3 -2.6,16.2 -3.8,22 -1.2,5.8 -3.7,15.2 -5.6,21 -1.9,5.8 -5.4,14.3 -7.9,19 -2.5,4.7 -6.7,11.4 -9.3,15 -2.7,3.6 -9.1,10.6 -14.3,15.5 -5.1,4.9 -13,11.4 -17.3,14.3 -4.4,2.9 -11.6,7.1 -16,9.2 -4.4,2.2 -12.7,5.5 -18.5,7.4 -5.8,1.9 -15.2,4.3 -21,5.4 -5.8,1.2 -16.6,2.6 -24,3.3 -8.1,0.7 -20.5,0.9 -31,0.6 -9.6,-0.3 -22.7,-1.3 -29,-2.2 -6.3,-0.9 -16.4,-2.9 -22.5,-4.4 -6,-1.6 -15.3,-4.5 -20.5,-6.6 -5.2,-2.1 -12.7,-5.6 -16.5,-7.8 -3.8,-2.2 -9.9,-6.1 -13.5,-8.8 -3.6,-2.6 -9.9,-8.3 -14.1,-12.6 -4.2,-4.3 -10.1,-11.6 -13.2,-16.3 -3,-4.7 -6.9,-11.4 -8.5,-15 -1.6,-3.6 -4.3,-10.8 -6,-16 -1.6,-5.2 -3.9,-13.8 -5,-19 C 6,3250.8 4.4,3241.3 3.6,3235 2.7,3228.7 1.5,3214.9 1,3204.5 0.5,3194.1 -0.1,3131 -0.2,3064.4 -0.3,2997.8 0,2943 0.5,2942.7 c 0.5,-0.4 13,-0.6 55,-0.2 z M 7899,3873.1 c 4.9,-0.1 10.6,0.5 13.5,1.3 2.8,0.8 6.2,2.8 7.7,4.3 1.5,1.5 3.2,4 3.7,5.5 0.6,1.6 1.1,4.5 1.1,6.5 0,2.1 -0.7,6.2 -1.5,9 -0.9,3.3 -3,6.9 -5.4,9.5 -2.2,2.4 -10.5,8.4 -18.7,13.4 -10.3,6.4 -17.4,11.5 -22.9,16.9 -4.4,4.2 -11.4,10.4 -15.5,13.7 -4.1,3.4 -11.3,8.7 -16,11.8 -4.7,3.1 -9.9,7.4 -11.6,9.6 -1.7,2.1 -6.7,6.6 -11,9.9 -4.4,3.3 -10.6,7.7 -13.9,9.8 -3.9,2.4 -7.5,5.8 -10.1,9.5 -2.3,3.1 -7.9,9.1 -12.5,13.3 -4.6,4.2 -13.1,11.4 -18.9,16 -5.8,4.6 -15.4,12 -21.4,16.4 -9.1,6.7 -13.2,10.7 -25.4,25 -8,9.3 -15.2,17.8 -16.1,18.7 -1.4,1.6 -1.4,1.9 -0.1,3.3 0.8,0.9 2.4,1.6 3.5,1.6 1.1,-0.1 7.4,-2.8 14,-6.1 9.1,-4.5 16.8,-9.6 32,-21.1 11,-8.3 24.3,-18.3 29.5,-22.2 5.2,-3.9 13.4,-9 18.3,-11.4 6.2,-3.1 10.9,-6.4 16.5,-11.6 4.2,-3.9 10,-9.1 12.7,-11.3 2.8,-2.3 8.4,-6.4 12.5,-9.1 4.1,-2.8 10,-6.3 13,-7.8 3,-1.5 8.6,-3.9 12.5,-5.2 4.7,-1.7 10.1,-2.7 16.5,-3 8.4,-0.5 10,-0.3 13.8,1.6 2.3,1.1 5.1,3.3 6.1,4.8 1.1,1.6 2.7,4.8 3.7,7.3 1.6,4 1.7,7.6 1.5,30.5 -0.3,21.5 0,27 1.3,31.7 1,3.7 3.1,7.7 5.9,11 2.5,3.2 6.5,6.5 9.7,8.2 3.9,2.1 7.4,3.1 12,3.4 5.4,0.4 7.4,0.1 11.5,-1.8 2.9,-1.4 8.6,-5.8 13.5,-10.6 4.7,-4.5 10.1,-8.9 12,-9.9 1.9,-1 5,-2.8 6.8,-4.1 1.7,-1.3 4.2,-4.3 5.4,-6.7 1.1,-2.3 4.6,-6.7 7.7,-9.7 3.1,-3.1 8.3,-7.2 11.6,-9.1 3.3,-2 13,-7.4 21.5,-12 11.8,-6.4 17,-9.9 22,-14.7 3.6,-3.5 10.3,-9 15,-12.3 4.7,-3.2 12.8,-9.4 18,-13.6 5.2,-4.3 11.5,-10.4 14,-13.5 2.9,-3.7 8.3,-8.3 15.5,-13.2 6.1,-4.1 15.1,-11 20.2,-15.3 5,-4.3 16.2,-14 25,-21.5 8.7,-7.6 21,-17.8 27.3,-22.8 8.7,-6.8 13.1,-9.5 18,-11.1 3.6,-1.2 10.3,-2.4 15,-2.7 4.7,-0.2 11.6,0.1 15.5,0.7 3.9,0.7 9.3,2.2 12,3.5 2.8,1.2 6.7,3.8 8.8,5.7 2.2,1.9 5,5.6 6.3,8.4 1.3,2.7 2.6,7.5 3,10.5 0.4,3.8 -0.2,10.8 -2.1,22.5 -1.4,9.3 -4.2,26 -6.2,37 -1.9,11 -4.3,23.2 -5.3,27 -1,3.8 -5.9,18.2 -11,32 -5,13.7 -11,29.3 -13.2,34.5 -2.2,5.2 -6.7,16.7 -9.9,25.5 -5.5,14.9 -5.7,16.1 -4.1,17.3 1,0.8 3,1.1 5.2,0.8 1.9,-0.3 7.2,-3 11.8,-5.9 4.5,-2.8 15.8,-10.8 25,-17.6 9.2,-6.8 20.9,-15.4 26,-19 5.9,-4.2 9.7,-6.2 10.2,-5.6 0.5,0.6 4.9,8.9 19,36 l -6.2,4.2 c -3.5,2.3 -8.3,6.1 -10.8,8.5 -2.8,2.8 -11.5,8.2 -23.5,14.7 -10.5,5.7 -22.4,12.2 -26.5,14.4 -4.1,2.2 -10.2,6.1 -13.5,8.7 -3.3,2.6 -14.1,10.3 -24,17.2 -14.1,9.8 -19,12.7 -22.5,13.3 -3.7,0.6 -5.7,1.9 -11,6.9 -3.6,3.4 -9,7.4 -12,8.8 -3,1.5 -11.8,4.6 -19.5,6.9 -7.7,2.3 -15.4,4.4 -17,4.7 -1.7,0.2 -4,-0.2 -5.5,-1.1 -1.4,-0.8 -3.3,-3.1 -4.2,-5.1 -1,-2 -1.8,-4.8 -1.8,-6.4 0,-1.5 -2,-6.5 -4.4,-11.2 -2.4,-4.7 -5.5,-12.1 -6.9,-16.5 -1.3,-4.4 -3,-12.1 -3.7,-17 -0.8,-5.7 -1,-12.9 -0.6,-19.5 0.5,-8.2 0.3,-11.7 -1,-16 -1,-3.5 -1.4,-6.9 -0.9,-9.5 0.3,-2.2 1.6,-5.8 2.9,-8 1.3,-2.2 4.5,-5.7 7.2,-7.7 2.7,-2 7.6,-4.7 10.9,-5.9 3.9,-1.4 8.5,-2.2 13.2,-2.3 6.3,-0.1 7.4,0.2 9.8,2.4 1.5,1.4 3.3,3.7 4.1,5.2 0.8,1.6 2.3,3.2 3.4,3.8 1.5,0.8 2.5,0.6 4,-0.8 1.2,-0.9 2.9,-4 3.9,-6.7 1.1,-2.8 3,-10.2 4.4,-16.5 1.4,-6.3 3.8,-19.2 5.2,-28.5 1.5,-9.8 2.9,-23.6 3.2,-32.5 0.4,-12 0.2,-16 -0.8,-17.8 -0.8,-1.2 -3,-2.8 -4.9,-3.3 -1.9,-0.6 -4.9,-0.9 -6.5,-0.5 -1.6,0.3 -7.9,3.5 -14,7.2 -6.1,3.6 -18.4,11.8 -27.5,18.2 -9.1,6.4 -25.7,18.6 -37,27.1 -11.3,8.4 -28.8,21.8 -39,29.7 -13.6,10.5 -20.3,16.5 -25.5,22.6 -3.8,4.6 -7.9,9 -9,9.8 -1.1,0.8 -9,7.1 -17.5,13.9 -8.5,6.9 -19.6,15.3 -24.5,18.7 -4.9,3.3 -12.8,7.9 -17.5,10.1 -4.7,2.2 -11.4,5 -15,6.1 -3.6,1.2 -9.6,2.7 -13.5,3.3 -4.3,0.7 -11.5,1 -18.5,0.6 -6.9,-0.4 -14.4,-1.4 -18.7,-2.6 -4,-1.2 -9.9,-3.4 -13,-5 -3.2,-1.5 -8.4,-5.3 -11.7,-8.2 -3.2,-3 -7.3,-7.9 -9.1,-10.9 -1.9,-3 -4.5,-8.9 -5.8,-13 -1.4,-4.1 -3,-11.1 -3.6,-15.5 -0.6,-4.4 -1.4,-9.3 -1.6,-11 -0.3,-1.7 -1.6,-4.5 -5.5,-9.5 l -6.2,5.3 c -3.5,2.9 -14.3,10.4 -24.1,16.7 -9.8,6.3 -21.1,14.2 -25,17.6 -4,3.3 -14.6,12 -23.7,19.4 -9.1,7.4 -19,15.1 -22,17.1 -3,2 -10.2,6.2 -16,9.4 -5.8,3.2 -16.6,8.6 -24,12 -7.4,3.5 -17.6,7.7 -22.5,9.5 -8.4,3 -9.6,3.2 -18.5,2.7 -5.5,-0.3 -12.2,-1.4 -16,-2.6 -3.6,-1.2 -8.3,-3.5 -10.5,-5.2 -2.2,-1.7 -5.2,-4.7 -6.6,-6.7 -1.5,-2.1 -3.3,-6 -4.2,-8.7 -0.9,-2.8 -1.9,-7.5 -2.2,-10.5 -0.4,-3 -0.2,-8.2 0.4,-11.5 0.6,-3.3 2.6,-9.1 4.5,-13 2.2,-4.6 5.8,-9.5 10.2,-14.1 4.9,-5.1 7.1,-8.2 7.7,-10.8 0.4,-2.2 0.3,-3.6 -0.3,-3.6 -0.6,0 -4.3,2 -8.2,4.4 -4,2.5 -12,6.7 -17.8,9.5 -5.8,2.7 -13.2,5.7 -16.5,6.5 -3.3,0.9 -9.4,1.6 -13.5,1.6 -4.2,0 -10.8,-0.8 -15,-1.9 -4.1,-1 -10.4,-3.2 -14,-4.8 -3.6,-1.6 -10.7,-5.8 -15.9,-9.4 -5.3,-3.5 -16.4,-13 -25,-21.3 -8.6,-8.1 -19.4,-17.7 -24.1,-21.2 -4.7,-3.5 -11.4,-7.8 -15,-9.6 -5.8,-3 -7.3,-3.3 -15,-3.3 -7.7,0 -9.1,0.4 -15,3.4 -3.6,1.9 -8.7,4.8 -11.5,6.6 -2.7,1.7 -9.7,6.9 -15.5,11.5 -5.8,4.7 -27.1,25.1 -47.5,45.5 -20.4,20.4 -40.7,40 -45.3,43.5 -4.5,3.6 -10.8,8 -19.7,13.1 l -12,-0.5 c -11.8,-0.5 -12.1,-0.6 -15,-3.6 -2.9,-3 -3,-3.3 -2.9,-12.3 0.1,-8 0.7,-10.9 4.4,-22.2 2.3,-7.1 7.6,-21.8 11.7,-32.5 5.6,-14.7 8.1,-23 10.3,-34 1.6,-8 4.3,-23.3 6.1,-34 2,-11.6 3,-20.6 2.6,-22.3 -0.4,-1.6 -1.9,-3.3 -3.7,-4.2 -1.6,-0.8 -4.2,-1.5 -5.8,-1.5 -1.5,0 -5,1.1 -7.7,2.4 -2.7,1.2 -8.4,5.1 -12.5,8.6 -4.1,3.5 -13.4,10.2 -20.5,15.1 -9,6 -17.5,13 -27.5,22.6 -8,7.6 -29,27.3 -46.5,43.8 -17.6,16.6 -36.3,33.8 -41.5,38.4 -5.2,4.6 -12.9,10.9 -17,14.1 -4.1,3.1 -9.5,6.9 -12,8.3 -3.7,2.2 -5.7,2.7 -11.5,2.7 -3.9,0 -9.5,-0.6 -12.5,-1.3 -3,-0.7 -6.7,-2 -8.3,-3 -1.5,-0.9 -3.3,-2.9 -3.9,-4.3 -1,-2.1 -1,-4 0,-9.5 0.6,-3.8 3,-12.3 5.2,-18.9 2.2,-6.6 6.7,-18.9 10.1,-27.3 3.4,-8.3 7.6,-19.3 9.4,-24.2 1.8,-4.9 4.4,-13.7 5.8,-19.5 1.4,-5.8 2.8,-12.6 3.1,-15.3 0.5,-3.8 0.2,-5.2 -1.4,-7.2 -1.6,-2 -2.9,-2.5 -6.2,-2.5 q -4.3,0.1 -10.3,3.3 c -3.8,2 -9.9,7.1 -16.5,13.6 -5.8,5.7 -13.6,13.2 -17.5,16.6 -3.9,3.4 -11.6,10 -17.1,14.6 -5.6,4.6 -12.3,11.2 -14.8,14.6 -2.5,3.5 -4.8,6.3 -5.1,6.3 -0.3,0 -2,-3.3 -3.9,-7.3 -1.8,-3.9 -6.2,-12.1 -16.3,-29.2 l 10.2,-12 c 5.5,-6.6 17.1,-18.6 25.6,-26.7 8.5,-8 20.6,-19.1 26.9,-24.5 6.3,-5.4 19.1,-16 28.5,-23.5 9.4,-7.4 26,-21.4 57,-48.5 l 19.5,-6.7 c 10.7,-3.6 21.1,-6.6 23,-6.6 1.9,0 5.3,0.6 7.4,1.3 2.1,0.6 5.6,2.7 7.7,4.4 2.4,2 4.6,5.1 5.7,8 1.3,3.7 1.7,7.7 1.6,17.8 0,7.9 -0.7,16.6 -1.8,22 -0.9,4.9 -2.8,13.1 -4.1,18 -1.3,4.9 -4,13.5 -6,19 -2.3,6.6 -3.3,10.7 -2.8,11.9 0.5,1 1.9,2.3 3.3,2.8 2,0.7 3.5,0.2 7.5,-2.2 2.8,-1.7 9.9,-7.1 16,-11.9 6.1,-4.9 15.5,-12.8 21,-17.6 5.5,-4.8 20.5,-18.3 33.4,-29.9 12.8,-11.6 27.4,-24.4 32.5,-28.4 5,-4 12.9,-9.9 17.6,-13.1 4.7,-3.2 11.9,-7.7 16,-9.9 4.1,-2.2 11,-5.2 15.3,-6.6 4.6,-1.6 10,-2.6 13.5,-2.6 3.1,0 7.7,0.7 10.2,1.5 2.5,0.9 6.2,3.3 8.3,5.3 2.1,2 4.8,6.2 6,9.2 2,5 2.2,7.2 2.1,24 0,11.8 -0.6,22.7 -1.7,30 -0.9,6.3 -2.9,16.2 -4.3,22 -1.5,5.8 -4.1,14.3 -5.9,19 -1.8,4.7 -4.7,11.4 -6.4,15 -1.8,3.8 -3.1,8.1 -3.1,10.5 -0.1,2.5 0.6,4.7 1.7,5.8 1.1,1.1 2.6,1.6 3.8,1.3 1.1,-0.3 4.7,-3.3 8,-6.8 3.3,-3.5 7.6,-8.2 9.5,-10.4 2.1,-2.6 13.4,-10.8 28.5,-21 14.9,-10 29.4,-18.9 36,-22 6.1,-2.9 14.6,-6.2 19,-7.4 4.4,-1.1 11.6,-2.4 16,-2.7 6.9,-0.5 8.6,-0.3 12.3,1.6 2.3,1.1 8.6,5.6 14,9.9 5.3,4.4 11.4,9.9 13.5,12.3 2.1,2.4 6.1,8.2 8.9,12.9 2.8,4.7 8.5,13.4 12.6,19.5 4.1,6.1 10.5,14.6 14.2,19 3.7,4.4 9.2,9.9 12.1,12.2 3,2.3 7.1,4.9 9.2,5.7 2,0.9 5.6,1.6 8,1.6 2.5,0 5.8,-0.9 8.2,-2.3 2.5,-1.4 6.3,-5.4 16,-18.4 l 23.5,-13 c 22.1,-12.3 23.8,-13.4 28.8,-19.4 2.9,-3.5 7.2,-8.7 9.6,-11.4 2.8,-3.3 6.7,-6.2 11.2,-8.5 3.8,-1.9 10,-6.2 13.9,-9.5 3.9,-3.3 10.6,-8.8 15,-12.1 4.4,-3.3 11.8,-8.1 16.5,-10.5 4.6,-2.4 11.9,-6.9 16.2,-9.9 4.2,-3 13.7,-10.1 21,-15.6 7.3,-5.6 19.6,-14.4 27.3,-19.6 7.7,-5.2 18.5,-12.1 24,-15.4 5.5,-3.2 14.9,-8.1 21,-11 6.1,-2.8 14.6,-6.4 19,-7.9 4.4,-1.5 10.7,-3.3 14,-4 3.3,-0.7 9.8,-1.3 14.5,-1.4 z" />
    <path
       id="Path 1"
       class="s1"
       d="m 2027,0 h 1316 v 355 h -66.8 c -36.7,0 -76.6,0.5 -88.7,1 -12.1,0.6 -28.1,1.7 -35.5,2.6 -7.4,0.8 -18,2.4 -23.5,3.5 -5.5,1.1 -14.5,3.3 -20,5 -5.5,1.7 -13.4,4.7 -17.5,6.6 -4.1,1.9 -11.1,5.8 -15.5,8.7 -4.4,3 -11.4,8.5 -15.5,12.3 -4.1,3.9 -10.1,10.3 -13.2,14.4 -3.1,4.1 -7.8,11 -10.3,15.4 -2.5,4.4 -5.9,11.8 -7.6,16.5 -1.6,4.7 -4.3,15 -5.9,23 -1.6,8 -3.6,20.8 -4.4,28.5 -0.8,7.7 -2.1,22.8 -2.8,33.5 -1,15.5 -1.3,125.3 -1.3,533.5 0,405.6 0.3,520 1.3,542.5 0.7,15.7 2,38.2 2.8,50 0.8,11.8 2.1,29.2 3,38.5 0.8,9.3 2.6,25.8 4,36.5 1.3,10.7 3.6,26.9 5,36 1.4,9.1 4.3,25.5 6.5,36.5 2.2,11 6,27.9 8.5,37.5 2.5,9.6 7.6,26.7 11.3,38 3.8,11.3 9.7,27 13.1,35 3.4,8 9.3,20.6 13,28 3.8,7.4 10.8,20 15.6,28 4.8,8 11.6,18.8 15.3,24 3.6,5.2 9.9,13.8 14,19 4.1,5.2 11.8,14.5 17.2,20.5 5.4,6 13.5,14.6 18.1,19.1 4.6,4.5 12.6,11.8 17.8,16.4 5.2,4.5 14.4,12 20.5,16.5 6.1,4.5 16.2,11.6 22.5,15.8 6.3,4.1 17.3,10.8 24.5,14.8 7.2,4 17.3,9.2 22.5,11.7 5.2,2.4 14.7,6.6 21,9.2 6.3,2.7 19.6,7.6 29.5,11 9.9,3.3 27,8.3 38,11 11,2.7 26.5,6.1 34.5,7.5 8,1.4 21.7,3.4 30.5,4.5 8.8,1 22.5,2.5 30.5,3.2 8.4,0.7 29.6,1.2 50.5,1.2 20.1,0 42,-0.5 49.5,-1.2 7.4,-0.7 20.9,-2.2 30,-3.3 9.1,-1.1 23.7,-3.4 32.5,-5 8.8,-1.7 24.1,-5 34,-7.5 9.9,-2.5 26.6,-7.4 37,-10.9 10.4,-3.5 23.9,-8.3 30,-10.8 6.1,-2.4 17.8,-7.5 26,-11.3 8.2,-3.8 22.9,-11.3 32.5,-16.8 9.6,-5.4 24,-14.1 32,-19.3 8,-5.3 20.3,-13.9 27.5,-19.3 7.2,-5.4 17.5,-13.5 23,-18.1 5.5,-4.6 17.2,-15.6 26.1,-24.4 8.8,-8.8 20.8,-21.7 26.5,-28.6 5.7,-6.9 13.8,-17.5 18.1,-23.5 4.2,-6 10.6,-15.6 14.2,-21.4 3.6,-5.8 10.2,-17.5 14.5,-26 4.4,-8.5 10,-20.5 12.4,-26.5 2.5,-6 6.3,-16.4 8.5,-23 2.2,-6.6 5.6,-17.8 7.5,-25 2,-7.2 5,-19.1 6.6,-26.5 1.7,-7.4 4.2,-19.8 5.6,-27.5 1.4,-7.7 3.9,-23.2 5.5,-34.5 1.6,-11.3 3.8,-29.3 5,-40 1.1,-10.7 2.6,-28.5 3.4,-39.5 0.9,-11 2.1,-30.3 2.8,-43 1,-18.2 1.3,-140.8 1.3,-592.5 0,-542.7 -0.1,-570 -1.8,-581 -1,-6.3 -2.8,-15.6 -4.1,-20.5 -1.3,-4.9 -3.6,-11.9 -5.1,-15.5 -1.4,-3.6 -5.1,-10.3 -8.2,-15 -3.1,-4.7 -10.4,-13.3 -16.2,-19.1 -6.7,-6.7 -13.9,-12.8 -19.6,-16.5 -4.9,-3.2 -12.6,-7.4 -17,-9.2 -4.4,-1.9 -12.1,-4.5 -17,-5.7 -4.9,-1.3 -15.5,-3 -23.5,-3.9 -8,-0.9 -21.9,-2.1 -31,-2.6 -9.1,-0.6 -52.4,-1.4 -176,-2.5 V 0 l 1112.5,0.5 0.5,354 -71.7,0.7 c -39.5,0.4 -80.1,1.2 -90.3,1.8 -10.2,0.6 -25.3,1.7 -33.5,2.5 -8.3,0.9 -19.1,2.2 -24,3.1 -4.9,0.8 -12.4,2.4 -16.5,3.6 -4.1,1.1 -11.1,3.8 -15.5,6 -4.4,2.2 -11.1,6.1 -15,8.6 -3.9,2.4 -10.1,7 -14,10.2 -3.9,3.1 -9.8,8.8 -13.3,12.6 -3.5,3.8 -9.2,11.2 -12.7,16.4 -3.5,5.2 -7.7,12.4 -9.3,16 -1.7,3.6 -3.9,10.1 -5,14.5 -1.1,4.4 -2.7,12.5 -3.6,18 -0.8,5.5 -2,14.9 -2.6,21 -0.5,6.1 -1.5,18.4 -2.2,27.5 -0.8,11.8 -1.3,178.4 -1.9,589 -0.4,314.9 -1,575 -1.3,578 -0.3,3 -1.1,12.9 -1.6,22 -0.6,9.1 -2,26.4 -3.1,38.5 -1.1,12.1 -3.3,32.8 -5,46 -1.7,13.2 -5,35.7 -7.4,50 -2.4,14.3 -6,33.7 -8,43 -2,9.3 -5.6,25.1 -8,35 -2.4,9.9 -6.5,25.2 -9,34 -2.5,8.8 -7.1,23.7 -10.1,33 -3.1,9.3 -8.1,23.7 -11.1,32 -3.1,8.2 -8.7,22.4 -12.5,31.5 -3.8,9.1 -12.3,27.3 -18.8,40.5 -6.5,13.2 -15.4,30.3 -19.7,38 -4.3,7.7 -11,19.2 -14.7,25.5 -3.8,6.3 -13,20.7 -20.5,32 -7.4,11.3 -19.6,28.6 -27.1,38.5 -7.4,9.9 -18,23.4 -23.4,30 -5.5,6.6 -15.1,17.8 -21.4,25 -6.4,7.2 -21.7,23.1 -34.1,35.5 -12.4,12.4 -29.3,28.4 -37.5,35.5 -8.2,7.2 -21.2,18.1 -29,24.4 -7.7,6.2 -20,15.7 -27.1,21 -7.1,5.4 -19.5,14.2 -27.5,19.7 -8,5.5 -20.6,13.9 -28,18.6 -7.4,4.7 -16.4,10.3 -20,12.5 -3.6,2.2 -12.8,7.6 -20.5,12 -7.7,4.4 -22.6,12.6 -33,18.1 -10.4,5.5 -27.3,13.9 -37.5,18.7 -10.2,4.8 -26.4,12.1 -36,16.2 -9.6,4.2 -25.4,10.6 -35,14.3 -9.6,3.7 -25.2,9.5 -34.5,12.8 -9.3,3.3 -26,8.7 -37,12.1 -11,3.4 -29,8.7 -40,11.7 -11,3 -30.6,7.9 -43.5,10.8 -12.9,3 -31.8,7.1 -42,9.1 -10.2,2 -29.3,5.4 -42.5,7.5 -13.2,2.2 -32.8,5.1 -43.5,6.4 -10.7,1.4 -28.5,3.4 -39.5,4.5 -11,1.1 -29.2,2.7 -40.5,3.6 -11.3,0.8 -29.3,1.9 -40,2.5 -10.7,0.5 -37.1,1.3 -58.5,1.6 -23.2,0.4 -52.2,0.2 -71.5,-0.5 -17.9,-0.6 -39.7,-1.6 -48.5,-2.1 -8.8,-0.6 -24.3,-1.7 -34.5,-2.6 -10.2,-0.8 -28.4,-2.6 -40.5,-4 -12.1,-1.4 -31.4,-3.9 -43,-5.5 -11.6,-1.7 -31.8,-5 -45,-7.4 -13.2,-2.4 -33,-6.4 -44,-8.9 -11,-2.4 -26.5,-6.1 -34.5,-8.1 -8,-2 -24.4,-6.5 -36.5,-10 -12.1,-3.5 -32.6,-10 -45.5,-14.4 -12.9,-4.3 -31.6,-11.1 -41.5,-14.9 -9.9,-3.8 -27.2,-10.9 -38.5,-15.7 -11.3,-4.8 -33.1,-14.9 -48.5,-22.4 -15.4,-7.6 -35.7,-17.9 -45,-23.1 -9.3,-5.1 -24.9,-14 -34.5,-19.8 -9.6,-5.7 -27.8,-17.3 -40.5,-25.7 -12.7,-8.4 -32.9,-22.7 -45,-31.8 -12.1,-9 -28.3,-21.7 -36,-28 -7.7,-6.3 -18.7,-15.6 -24.5,-20.7 -5.8,-5.1 -19,-17.2 -29.4,-26.9 -10.4,-9.7 -26.6,-25.7 -36,-35.6 -9.4,-10 -22.8,-24.6 -29.7,-32.5 -6.9,-8 -16.5,-19.4 -21.4,-25.5 -4.9,-6.1 -13.6,-17.3 -19.3,-25 -5.7,-7.7 -14.8,-20.5 -20.2,-28.5 -5.3,-8 -14.5,-22.4 -20.3,-32 -5.7,-9.6 -14.6,-25.4 -19.5,-35 -5,-9.6 -12.3,-24.7 -16.2,-33.5 -3.9,-8.8 -10,-23.7 -13.5,-33 -3.5,-9.3 -8.7,-24.7 -11.5,-34 -2.8,-9.3 -7.1,-24.9 -9.5,-34.5 -2.4,-9.6 -5.9,-25.5 -7.9,-35.3 -2,-9.7 -5.1,-27 -7,-38.5 -1.9,-11.4 -4.6,-29.7 -6,-40.7 -1.4,-11 -3.5,-28.8 -4.5,-39.5 -1.1,-10.7 -2.7,-28.5 -3.5,-39.5 -0.9,-11 -2,-28.3 -2.6,-38.5 -0.6,-10.2 -1.6,-28.8 -2.2,-41.5 -0.8,-16.2 -1.3,-192.1 -1.8,-593.5 -0.5,-431.2 -0.9,-574 -1.8,-585 -0.7,-8 -1.9,-20.8 -2.7,-28.5 -0.8,-7.7 -2.2,-18.3 -3.1,-23.5 -0.9,-5.2 -2.7,-13.8 -4.1,-19 -1.3,-5.2 -4.5,-14 -7.2,-19.5 -2.6,-5.5 -6.7,-12.9 -9.1,-16.5 -2.5,-3.6 -7.2,-9.4 -10.5,-12.9 -3.3,-3.5 -8.9,-8.5 -12.5,-11.2 -3.6,-2.7 -9.9,-6.7 -14,-8.8 -4.1,-2.1 -11.1,-5 -15.5,-6.4 -4.4,-1.4 -12.5,-3.5 -18,-4.6 -5.5,-1.1 -15.4,-2.7 -22,-3.5 -6.6,-0.9 -18.3,-2 -26,-2.7 -7.9,-0.6 -49.6,-1.2 -177.5,-1.9 V 177.5 Z" />
    <path
       id="Path 2"
       fill-rule="evenodd"
       class="s0"
       d="m 3721.5,2935.7 c 7.2,0.2 16.8,0.9 21.5,1.4 4.7,0.6 13,1.9 18.5,3 5.5,1.1 15.4,3.8 22,6 6.6,2.2 16.5,6.4 22,9.2 5.5,2.8 13.4,7.7 17.5,10.8 4.1,3.1 10.7,9 14.5,13.1 3.8,4.1 9.1,10.5 11.6,14.4 2.5,3.8 6.1,9.8 7.9,13.4 1.8,3.6 4.7,11 6.5,16.5 1.8,5.5 4,14.7 4.9,20.5 0.9,5.8 1.6,11.7 1.6,13.3 0,2.1 -0.5,2.7 -2.3,2.7 -1.2,0 -13,0.9 -26.2,2 -13.2,1 -24.1,1.8 -24.1,1.7 -0.1,-0.1 -1.1,-5.1 -2.3,-11.2 -1.2,-6.1 -3.6,-14.4 -5.4,-18.5 -1.7,-4.1 -5.2,-10.6 -7.8,-14.5 -2.5,-3.8 -7.5,-9.6 -11,-12.8 -3.6,-3.2 -10.2,-7.7 -14.9,-10.1 -4.7,-2.4 -11.7,-5.4 -15.5,-6.5 -3.8,-1.2 -11.3,-2.9 -16.5,-3.8 -6.4,-1.1 -15.7,-1.6 -28.5,-1.6 -13.6,-0.1 -22.1,0.4 -30,1.7 -6.1,1 -13.9,2.7 -17.5,3.8 -3.6,1.1 -10.1,3.9 -14.5,6.1 -5.7,2.9 -10.2,6.3 -15.6,11.7 -5.5,5.5 -8.5,9.5 -11.2,15 -2,4.1 -4.2,10 -4.7,13 -0.6,3 -1,7.8 -1,10.5 0,2.8 0.4,7.5 1,10.5 0.6,3 2.3,8.2 3.9,11.5 1.6,3.3 5.4,8.6 8.5,11.8 4.3,4.3 8,6.9 15.8,10.7 5.7,2.7 15.7,6.7 22.3,8.9 6.6,2.1 19.2,5.7 28,7.9 8.8,2.2 25,6.1 36,8.7 11,2.6 28.3,7.1 38.5,10 10.2,3 22.8,7 28,9 5.2,2 13.3,5.7 18,8.2 4.7,2.5 11,6.2 14,8.3 3,2 8.4,6.2 12,9.2 3.6,3 9.2,8.8 12.5,12.9 3.4,4.1 7.7,10.3 9.7,13.9 2.1,3.6 5.1,10.1 6.7,14.5 1.6,4.4 3.7,11.8 4.6,16.5 0.9,5 1.6,13.6 1.6,21 0,7.6 -0.7,15.9 -1.6,21 -1,4.7 -3.1,12.3 -4.7,17 -1.7,4.7 -4,10.5 -5.3,13 -1.2,2.5 -5,8.6 -8.3,13.5 -3.3,4.9 -9.3,12.4 -13.4,16.4 -4,4.1 -10.7,10 -14.8,13.1 -4.1,3 -12.4,8.1 -18.5,11.2 -6.1,3.1 -16.4,7.5 -23,9.7 -6.6,2.2 -16.5,4.9 -22,6 -5.5,1.1 -15.4,2.6 -22,3.2 -7.5,0.7 -18.9,0.9 -30.5,0.5 -10.2,-0.3 -23.4,-1.3 -29.5,-2.1 -6.1,-0.8 -14.6,-2.2 -19,-3.1 -4.4,-0.9 -13.8,-3.5 -21,-5.9 -7.2,-2.3 -16.8,-6.1 -21.5,-8.5 -4.7,-2.4 -11.4,-6.2 -15,-8.6 -3.6,-2.3 -9.9,-7.1 -14,-10.6 -4.1,-3.5 -9.9,-9.3 -12.9,-12.9 -3,-3.5 -7.8,-10 -10.6,-14.4 -2.9,-4.4 -6.7,-10.9 -8.5,-14.5 -1.8,-3.6 -4.7,-11 -6.6,-16.5 -1.8,-5.5 -4,-13.5 -4.8,-17.7 -0.9,-4.3 -1.9,-11.9 -2.3,-16.8 -0.7,-7.7 -0.6,-9 0.7,-9 0.8,0 11.2,-0.9 23,-2 11.8,-1.1 22.8,-2 27.5,-2 l 2.3,11 c 1.2,6 3.2,13.8 4.3,17.3 1.2,3.4 3.5,8.9 5.2,12.2 1.6,3.3 4.6,8.5 6.7,11.5 2,3 6.9,8.4 10.7,12 3.9,3.6 10.6,8.6 14.9,11.2 4.4,2.5 11.7,6.3 16.4,8.3 4.7,2 13.4,4.9 19.5,6.5 6.1,1.5 15.1,3.3 20,3.9 4.9,0.6 15.5,1.1 23.5,1.1 8,0 19,-0.7 24.5,-1.5 5.5,-0.8 13.4,-2.4 17.5,-3.5 4.1,-1 10.9,-3.3 15,-5 4.1,-1.7 10.7,-5.1 14.5,-7.4 3.8,-2.4 9.9,-7.5 13.5,-11.3 3.6,-3.7 8.2,-10 10.2,-13.8 2,-3.9 4.4,-9.9 5.2,-13.5 0.9,-3.6 1.6,-9.9 1.6,-14 0,-4.1 -0.7,-10.4 -1.6,-14 -0.8,-3.6 -3,-9.2 -4.7,-12.5 -1.8,-3.3 -5.9,-8.7 -9.2,-12 -3.3,-3.4 -9.2,-8 -13,-10.3 -3.8,-2.3 -10.8,-5.8 -15.5,-7.7 -4.7,-2 -15.2,-5.6 -23.5,-8 -8.2,-2.4 -30.7,-8.2 -50,-13 -19.2,-4.8 -43.1,-11.3 -53,-14.6 -9.9,-3.2 -22.5,-8 -28,-10.7 -5.5,-2.7 -13.6,-7.3 -18,-10.2 -4.4,-3 -11.3,-8.6 -15.4,-12.5 -4,-3.8 -9.3,-9.7 -11.6,-13 -2.4,-3.3 -5.9,-9.3 -7.9,-13.2 -2,-4 -4.8,-11.2 -6.3,-16 -2.5,-8.1 -2.7,-10.2 -2.7,-26.8 -0.1,-15.5 0.2,-19.1 2.1,-26 1.2,-4.4 3.7,-11.6 5.5,-16 1.9,-4.4 6,-12 9.3,-17 3.2,-4.9 9.2,-12.4 13.4,-16.5 4.2,-4.2 11.4,-10.1 16.1,-13.2 4.7,-3.1 12.3,-7.4 17,-9.6 4.7,-2.2 12.8,-5.3 18,-7 5.2,-1.7 12.4,-3.7 16,-4.5 3.6,-0.8 9.9,-2.1 14,-2.7 4.1,-0.7 12.2,-1.6 18,-2 5.8,-0.5 16.3,-0.6 23.5,-0.3 z m 7615,0 c 7.1,0.2 18.4,1.1 25,1.9 6.6,0.8 16,2.4 21,3.6 5,1.1 14.2,3.8 20.5,6 6.3,2.2 16.7,6.6 23,9.9 6.3,3.2 15.3,8.8 20,12.3 4.7,3.5 11.8,9.9 15.9,14.2 4,4.4 9.7,11.5 12.7,15.9 2.9,4.4 7.7,13.2 10.7,19.5 3.1,6.3 6.9,15.6 8.5,20.5 1.7,5 3.8,11.4 6.2,19.5 l -4.2,1.1 c -2.4,0.6 -13.2,3.5 -24.1,6.5 -10.8,3 -20.3,5.4 -20.9,5.4 -0.7,0 -2.6,-4 -4.1,-8.8 -1.5,-4.8 -5.3,-13.9 -8.3,-20.2 -3.1,-6.3 -7.5,-14.2 -9.9,-17.5 -2.4,-3.3 -7,-8.5 -10.2,-11.6 -3.2,-3.1 -8.5,-7.5 -11.8,-9.7 -3.3,-2.2 -8.2,-5.1 -11,-6.5 -2.7,-1.4 -8.4,-3.8 -12.5,-5.5 -4.1,-1.6 -11.3,-3.9 -16,-5 -4.7,-1.1 -13,-2.6 -18.5,-3.3 -6.4,-0.7 -16,-1 -26.5,-0.6 -9.1,0.3 -20.8,1.3 -26,2.2 -5.2,1 -13.3,2.8 -18,4.2 -4.7,1.3 -13.2,4.7 -19,7.4 -5.8,2.8 -14.3,7.6 -19,10.7 -4.7,3.1 -11.9,9.1 -16,13.3 -4.1,4.2 -10.1,11.1 -13.2,15.5 -3.1,4.3 -8.1,12.6 -11.2,18.4 -3,5.8 -6.8,14.6 -8.6,19.5 -1.7,5 -4.2,13.3 -5.5,18.5 -1.3,5.2 -3.1,13.8 -4,19 -0.9,5.3 -1.9,18.3 -2.2,29.5 -0.4,12.6 -0.1,25 0.7,33.5 0.7,7.4 2.3,18.5 3.5,24.5 1.3,6.1 3.7,15.3 5.5,20.5 1.7,5.2 4.9,13.3 7.1,18 2.2,4.7 6.6,12.3 9.7,17 3.1,4.7 9,12.1 13.2,16.4 4.1,4.4 10.9,10.4 15,13.5 4.1,3.1 12.5,8.2 18.5,11.3 6,3.1 16.4,7.5 23,9.7 6.6,2.2 15.4,4.6 19.5,5.5 4.1,0.8 12.5,2 18.5,2.7 6.5,0.7 16.6,0.9 24.5,0.6 7.4,-0.3 17.5,-1.3 22.5,-2.2 5,-0.9 13.3,-2.7 18.5,-4.1 5.2,-1.4 14.7,-4.5 21,-7.1 6.3,-2.5 15.8,-6.7 21,-9.4 5.2,-2.6 12.4,-6.7 16,-9 3.6,-2.3 8.4,-5.7 15,-10.9 v -77 h -122 v -49 h 176 l -0.5,154.3 -7,5.4 c -3.9,3 -12,8.7 -18,12.7 -6,4 -15.5,9.8 -21,12.9 -5.5,3.1 -15.1,7.9 -21.3,10.7 -6.1,2.7 -16.5,6.8 -22.9,9 -6.5,2.3 -17.2,5.4 -23.8,7 -6.6,1.6 -16.7,3.6 -22.5,4.5 -5.8,0.8 -17.7,1.8 -26.5,2.2 -9.8,0.3 -21.4,0.1 -30,-0.6 -7.7,-0.7 -18.7,-2.1 -24.5,-3.1 -5.8,-1.1 -16.1,-3.5 -23,-5.5 -6.9,-2 -17.9,-5.8 -24.5,-8.5 -6.6,-2.8 -17.2,-7.9 -23.5,-11.5 -6.3,-3.6 -14.9,-9.1 -19,-12.2 -4.1,-3.1 -11.7,-9.7 -16.9,-14.7 -5.1,-5 -12.1,-12.7 -15.6,-17.1 -3.5,-4.4 -8.6,-11.8 -11.5,-16.5 -2.8,-4.7 -7.1,-12.6 -9.4,-17.5 -2.4,-4.9 -6,-13.5 -8.1,-19 -2,-5.5 -5.2,-15.8 -7,-23 -1.9,-7.1 -4.1,-17.7 -5,-23.5 -1,-6.1 -1.9,-19.6 -2.2,-32.5 -0.4,-14 -0.1,-26.2 0.6,-33.5 0.7,-6.3 1.9,-15.3 2.7,-20 0.8,-4.7 2.6,-13 4,-18.5 1.4,-5.5 4.1,-14.7 6,-20.5 2,-5.8 5.8,-15.4 8.5,-21.5 2.7,-6.1 7.1,-14.7 9.7,-19.3 2.6,-4.6 8.1,-12.9 12.3,-18.5 4.2,-5.6 12.5,-14.9 18.5,-20.7 6,-5.8 15.2,-13.4 20.4,-16.9 5.2,-3.5 13.8,-8.5 19,-11.1 5.2,-2.6 13.5,-6.3 18.5,-8.3 5,-1.9 14.2,-4.9 20.5,-6.6 6.3,-1.7 14.9,-3.7 19,-4.5 4.1,-0.8 12.5,-1.9 18.5,-2.5 6,-0.6 13.7,-1.3 17,-1.5 3.3,-0.2 11.9,-0.1 19,0.1 z M 648,2942 l 56.4,0.5 217.1,324.6 0.5,-325.1 h 53 v 416 H 918.5 L 701.5,3033.3 701,3358 h -53 z m 713.5,0.5 0.5,415.5 -55.5,-0.5 -0.3,-206.5 c -0.1,-113.5 0,-207 0.3,-207.7 0.3,-1 6.4,-1.2 55,-0.8 z M 1676,2942 c 26.6,0 29,0.2 29.9,1.8 0.5,0.9 26.1,72.2 56.9,158.2 30.8,86.1 58.9,165.5 62.4,176.5 3.6,11 7.1,22.4 7.9,25.3 0.7,2.9 1.7,5.3 2.1,5.2 0.4,0 2.4,-5.3 4.3,-11.7 1.9,-6.5 6,-19 9,-27.8 3,-8.8 31.5,-85.9 121.1,-327 l 28.2,-0.2 c 26.4,-0.3 28.1,-0.2 27.6,1.5 -0.3,0.9 -36.6,93.8 -80.6,206.2 -44,112.5 -80.4,205.3 -80.9,206.3 -0.9,1.6 -3.1,1.7 -57.2,1.2 l -80.2,-207 c -44.1,-113.8 -80.1,-207.3 -79.8,-207.7 0.2,-0.4 13.4,-0.8 29.3,-0.8 z m 930.5,0.5 v 49 L 2361,2992 v 127 h 230 l -0.5,48.5 -229.5,0.5 v 140 h 255 v 50 h -310 l -0.2,-207.3 c -0.1,-114 0.2,-207.6 0.7,-208 0.4,-0.4 68.1,-0.6 300,-0.2 z m 316.5,-0.5 88.7,0.1 c 48.8,0 98.9,0.4 111.3,0.9 12.3,0.5 27.4,1.6 33.5,2.5 6,0.9 14.8,2.5 19.5,3.7 4.6,1.1 11.8,3.4 16,5 4.1,1.7 10.2,4.6 13.5,6.6 3.3,2.1 8.9,6.2 12.5,9.3 3.5,3 9.4,9.3 12.9,14 3.5,4.6 8.8,13.4 11.7,19.4 2.9,6.1 6.4,15.3 7.8,20.5 1.4,5.3 3.1,14.5 3.7,20.5 0.8,8.2 0.8,13.9 0,22 -0.6,6.1 -2,14.4 -3,18.5 -1,4.2 -3.3,10.9 -5,15 -1.7,4.2 -5.4,11.1 -8.3,15.5 -2.9,4.4 -9.1,11.9 -13.8,16.6 -4.7,4.7 -11.5,10.5 -15,12.8 -3.6,2.3 -10.1,6 -14.5,8.1 -4.4,2.2 -13,5.6 -19,7.5 -6.1,2 -16.4,4.7 -23,6.1 -6.6,1.4 -12.1,2.7 -12.3,2.9 -0.1,0.3 3.5,2.4 8,4.8 4.6,2.3 11.6,6.7 15.8,9.8 4.1,3.1 11.7,10.1 17,15.5 5.2,5.5 12.5,13.8 16.3,18.5 3.7,4.6 9.8,12.9 13.6,18.4 3.7,5.5 22.4,34.6 41.6,64.5 19.1,30 34.9,55.1 35.1,55.8 0.3,1 -7,1.2 -68.1,1.3 l -29.5,-46.3 c -16.2,-25.4 -34.2,-53.2 -39.9,-61.8 -5.7,-8.5 -14.9,-21.5 -20.5,-29 -5.5,-7.4 -14.1,-17.6 -19.1,-22.6 -5.9,-5.9 -11.8,-10.7 -17,-13.7 -4.4,-2.6 -11.6,-5.9 -24,-10.1 L 2978,3174 v 184 h -55 z m 55,184 c 117.3,-0.6 144.2,-1.1 149.5,-1.9 4.4,-0.6 12,-2.1 17,-3.3 5.1,-1.2 12.8,-4 18,-6.6 6.8,-3.4 10.7,-6.2 16,-11.6 4.9,-4.9 8.3,-9.5 11.2,-15.1 2.2,-4.4 4.9,-10.9 5.8,-14.5 1.1,-4.1 1.8,-10.3 1.8,-17 0,-6.8 -0.6,-12.7 -1.7,-17 -1,-3.5 -3.2,-9.4 -4.9,-13 -2.2,-4.4 -5.8,-9 -11.2,-14.5 -5.5,-5.6 -10.2,-9.2 -15,-11.7 -3.9,-2 -10.2,-4.5 -14,-5.7 -3.9,-1.1 -11.5,-2.7 -17,-3.6 -8.2,-1.2 -23.5,-1.5 -82.8,-1.5 H 2978 Z m 1273.5,-183.5 0.5,415.5 -55.5,-0.5 -0.3,-206.5 c -0.1,-113.5 0,-207 0.3,-207.7 0.3,-1 6.4,-1.2 55,-0.8 z m 394.7,-0.4 c 37,0 79.2,0.4 93.8,0.9 14.5,0.5 31.6,1.7 38,2.5 6.3,0.9 15.7,2.7 21,4 5.2,1.4 12.5,3.6 16.2,5 3.7,1.4 10.7,4.5 15.5,6.9 4.8,2.5 12.1,6.8 16.3,9.7 4.1,2.9 11.9,9.6 17.3,14.9 5.5,5.2 12.9,13.6 16.6,18.5 3.7,5 8.3,11.7 10.3,15 2,3.3 5.7,10.3 8.2,15.5 2.5,5.3 6.5,15.6 8.9,23 2.5,7.5 5.6,18.9 7,25.5 1.4,6.6 3.3,17.7 4.1,24.5 0.9,6.9 1.9,20.2 2.2,29.5 0.4,10 0.1,23.6 -0.5,33 -0.7,8.8 -1.9,20.4 -2.7,25.8 -0.8,5.3 -2.4,14.1 -3.5,19.5 -1.2,5.3 -4.1,15.6 -6.4,22.7 -2.4,7.2 -6.1,17.1 -8.3,22 -2.2,5 -5.4,11.7 -7.3,15 -1.8,3.3 -5.1,8.7 -7.3,12 -2.2,3.3 -6.5,9.2 -9.7,13 -3.1,3.9 -9.7,10.9 -14.6,15.6 -4.8,4.7 -12.9,11.2 -17.8,14.4 -5,3.3 -13.5,8 -19,10.4 -5.5,2.4 -15.2,5.8 -21.5,7.6 -6.4,1.8 -16.9,4.3 -23.5,5.4 -6.6,1.1 -18.8,2.5 -27,3.1 -9.7,0.7 -43.1,1 -174,0.5 l -0.3,-206.5 c -0.1,-113.5 0,-207 0.2,-207.7 0.4,-1 14.9,-1.3 67.8,-1.2 z M 4634,3308 c 120.3,-0.7 124.1,-0.8 135,-2.9 6.3,-1.2 14.8,-3.3 19,-4.7 4.1,-1.5 10.2,-4 13.5,-5.6 3.3,-1.7 8.4,-4.7 11.5,-6.8 3,-2 8.6,-7 12.5,-11.1 3.8,-4 8.6,-9.8 10.6,-12.9 2,-3 5.5,-8.8 7.7,-13 2.2,-4.1 5.6,-11.7 7.5,-17 2,-5.2 4.7,-14 6,-19.5 1.4,-5.5 3.2,-14.5 4.1,-20 0.8,-5.5 2,-17.2 2.6,-26 0.7,-9.3 0.9,-22.8 0.5,-32.5 -0.4,-9 -1.3,-21.6 -2.1,-28 -0.9,-6.3 -2.4,-15.3 -3.4,-20 -1,-4.6 -3,-12.1 -4.5,-16.5 -1.5,-4.4 -4.3,-11.3 -6.4,-15.5 -2,-4.1 -6.5,-11.5 -9.8,-16.5 -3.4,-4.9 -9.7,-12.5 -14,-16.8 -4.3,-4.4 -11.4,-10.3 -15.8,-13.2 -4.4,-3 -10.7,-6.5 -14,-7.8 -3.3,-1.4 -8.7,-3.2 -12,-4.1 -3.3,-0.8 -10.8,-2.3 -16.5,-3.2 -8.7,-1.4 -21.1,-1.7 -71.2,-2.1 l -60.7,-0.4 z m 766.4,-365.5 84.3,206 c 46.4,113.3 84.6,206.7 84.8,207.7 0.5,1.6 -1.4,1.8 -62,1.8 l -19.3,-50.3 c -10.7,-27.6 -21.6,-56 -29.2,-75.7 l -173.4,0.5 -45.3,125 -29.1,0.2 c -27.3,0.2 -29.1,0.1 -28.8,-1.5 0.2,-1 35.8,-94 79.1,-206.7 43.3,-112.8 79,-205.6 79.3,-206.3 0.3,-1 6.9,-1.2 59.6,-0.7 z m -44.9,98.5 c -2.6,7.9 -15.5,43.5 -28.7,79 -13.2,35.4 -24.2,65 -24.4,65.7 -0.3,1 14.1,1.3 69.6,1.3 h 70 c -41.2,-108.9 -57.4,-153.4 -62.7,-169 -5.2,-15.7 -9.6,-28.6 -9.6,-28.8 -0.1,-0.1 -2.3,8.3 -4.9,18.5 -2.5,10.3 -6.7,25.3 -9.3,33.3 z m 488.8,-99.3 87.6,0.6 c 49.7,0.3 92.2,1 98.1,1.6 5.8,0.6 15,1.8 20.5,2.7 5.5,0.8 13.9,2.7 18.5,4 4.7,1.4 12.4,4 17,5.9 4.7,1.9 11.7,5.3 15.5,7.5 3.9,2.2 10.2,6.3 14,9.2 3.9,2.8 11.5,9.7 17,15.3 5.5,5.5 13.1,14.3 16.8,19.5 3.7,5.2 9.9,15.8 13.7,23.5 3.8,7.7 8.6,18.9 10.6,25 2,6 4.7,15.7 6.1,21.5 1.4,5.7 3.4,16.3 4.5,23.5 1.5,9.5 2.2,20 2.5,39.5 0.4,20.6 0.2,29.9 -1.1,42 -0.9,8.5 -2.8,21.1 -4.2,28 -1.4,6.8 -4.4,18.1 -6.6,25 -2.2,6.8 -6,17.1 -8.4,22.7 -2.4,5.6 -5.8,12.8 -7.6,16 -1.7,3.2 -5.1,8.7 -7.4,12.3 -2.3,3.5 -7.1,10.1 -10.7,14.5 -3.5,4.4 -9.9,11.3 -14.3,15.3 -4.3,4 -11.5,9.7 -15.9,12.6 -4.4,3 -11.3,7 -15.5,9.1 -4.1,2 -12.6,5.4 -19,7.5 -6.3,2.1 -15.5,4.8 -20.5,5.9 -4.9,1.1 -14.1,2.7 -20.5,3.7 -10,1.5 -22.9,1.7 -191,2.4 z m 54.8,366.2 c 113.6,-0.6 124.9,-0.9 132.5,-2.3 4.9,-0.9 13,-2.8 18,-4.2 4.9,-1.5 12.6,-4.5 17,-6.7 4.4,-2.2 10.7,-5.9 14,-8.2 3.3,-2.4 7.8,-6.3 10,-8.7 2.3,-2.4 6.2,-7.3 8.9,-10.9 2.6,-3.6 6.5,-9.6 8.6,-13.5 2.1,-3.8 5.6,-11.5 7.8,-17 2.2,-5.5 5.1,-14.5 6.5,-20 1.4,-5.5 3.2,-14 4.1,-19 0.8,-4.9 2,-15.1 2.7,-22.5 0.7,-8.3 0.9,-22.4 0.6,-37 -0.3,-13.4 -1.3,-27.8 -2.1,-33.5 -0.9,-5.5 -2.3,-12.9 -3.1,-16.5 -0.8,-3.6 -2.6,-10.3 -4.1,-15 -1.4,-4.7 -5,-13.2 -8,-19 -3,-5.8 -8.2,-14.3 -11.8,-19 -3.5,-4.7 -9.5,-11.4 -13.2,-14.9 -3.8,-3.6 -10.1,-8.5 -13.9,-11.1 -3.9,-2.5 -10.4,-6 -14.5,-7.7 -4.1,-1.7 -10.9,-3.8 -15,-4.6 -4.1,-0.9 -11.1,-2.1 -15.5,-2.8 -5.2,-0.7 -29.5,-1.3 -68.7,-1.6 l -60.7,-0.4 z m 985,-366 h 67.8 c 37.3,0 79.4,0.4 93.7,0.9 14.3,0.5 31.2,1.7 37.5,2.5 6.4,0.9 15.3,2.5 19.8,3.6 4.5,1.1 12.6,3.6 18,5.6 5.4,1.9 13.1,5.3 17.2,7.5 4.2,2.2 10.5,6.1 14,8.7 3.6,2.5 9.7,7.4 13.5,10.7 3.9,3.4 10.3,9.9 14.2,14.6 3.9,4.6 9.7,12.2 12.8,16.9 3.2,4.6 8.1,13.4 11.1,19.5 2.9,6 7.4,17 9.8,24.5 2.5,7.4 5.6,18.6 7,25 1.4,6.3 3.4,17.1 4.3,24 1.4,9.6 1.8,19.2 1.8,42.5 0,23.2 -0.4,32.8 -1.8,42.5 -0.9,6.8 -2.9,17.6 -4.3,24 -1.4,6.3 -4.6,17.5 -7,25 -2.5,7.4 -7.1,18.9 -10.2,25.5 -3.2,6.6 -8.2,15.8 -11.3,20.5 -3,4.6 -8.9,12.5 -13,17.5 -4.1,4.9 -10.4,11.5 -13.9,14.6 -3.6,3 -9.2,7.6 -12.5,10 -3.3,2.4 -10,6.5 -15,9 -4.9,2.6 -13.5,6.2 -19,8.1 -5.5,1.9 -14.9,4.7 -21,6.1 -6,1.4 -16.4,3.4 -23,4.3 -10.3,1.4 -24.3,1.7 -190.5,2.4 z m 55,366 c 112.2,-0.7 126.1,-1.1 132.5,-2.3 4.4,-0.8 11.6,-2.5 16,-3.7 4.4,-1.2 12.5,-4.3 18,-6.9 5.5,-2.7 12.9,-7 16.5,-9.7 3.5,-2.7 9.1,-8.1 12.3,-11.9 3.3,-3.9 8.1,-10.6 10.7,-15 2.6,-4.4 6.3,-11.6 8.3,-16 1.9,-4.4 4.9,-12.3 6.5,-17.5 1.7,-5.3 4,-14 5.1,-19.5 1.1,-5.5 2.6,-14.8 3.3,-20.5 0.8,-6.5 1.3,-21.3 1.3,-38.5 0,-17.3 -0.5,-31.7 -1.3,-37.5 -0.7,-5.3 -2.4,-14.7 -3.8,-21 -1.4,-6.4 -3.7,-14.7 -5.1,-18.5 -1.4,-3.9 -4.6,-11.1 -7.1,-16 -2.5,-5 -7.8,-13.3 -11.7,-18.5 -4,-5.3 -10,-12.2 -13.6,-15.4 -3.5,-3.3 -9.5,-8 -13.4,-10.6 -3.8,-2.5 -10.3,-6 -14.5,-7.7 -4.1,-1.8 -10.8,-3.9 -15,-4.7 -4.1,-0.9 -11.1,-2.1 -15.5,-2.7 -5.1,-0.8 -29.8,-1.4 -68.6,-1.7 l -60.7,-0.4 z m 595,-366 h 300 v 50 h -245 v 127 h 229 v 49 h -229 v 140 l 254.5,0.5 v 49 l -309.5,0.5 z m 1005,0 82.5,0.5 44.2,132 c 24.4,72.6 50.8,152 58.9,176.5 8,24.5 14.7,44.7 14.9,45 0.2,0.3 3.4,-8.7 7.1,-20 3.7,-11.3 30.7,-90.3 60,-175.5 29.3,-85.3 53.5,-155.8 53.8,-156.8 0.6,-1.6 3.3,-1.7 74.6,-1.7 v 416 h -53 v -171 c 0,-94.1 -0.3,-171 -0.7,-171 -0.4,-0.1 -1.8,2.5 -3,5.7 -1.2,3.2 -27.9,79.8 -59.3,170.3 -31.4,90.5 -57.4,164.8 -57.8,165.2 -0.4,0.4 -11.7,0.7 -49.6,0.3 l -58.8,-173 c -32.3,-95.2 -59.2,-173.9 -59.7,-175 -0.6,-1.3 -1,60.7 -1.1,348.5 h -53 z m 858.1,0 c 26.5,0 29,0.2 29.8,1.8 0.5,0.9 38.6,93.7 84.6,206.2 46.1,112.5 83.9,205.3 84.1,206.3 0.4,1.6 -1.5,1.7 -62.1,1.2 l -48.1,-125 -86.7,-0.2 c -81.8,-0.3 -86.7,-0.2 -87.3,1.5 -0.3,0.9 -10.5,29.2 -44.9,123.7 l -29.3,0.3 c -27.4,0.2 -29.2,0.1 -28.7,-1.5 0.3,-1 36,-94 79.2,-206.8 43.3,-112.7 79.1,-205.6 79.6,-206.2 0.7,-1 7.9,-1.3 29.8,-1.3 z m -16.5,102.5 c -3.1,9.4 -16.1,45.1 -29,79.5 l -23.4,62.5 c 107.7,0.4 139.1,0.4 139.3,0.3 0.2,-0.2 -11.1,-30.7 -25.1,-67.8 -14,-37.1 -30.2,-81.4 -36,-98.5 -5.7,-17 -10.6,-31.1 -10.7,-31.2 -0.1,-0.1 -2.3,8.5 -4.9,19 -2.6,10.6 -7.2,26.9 -10.2,36.2 z m 545.4,-102.5 108.2,161.9 c 59.6,89.1 108.6,161.8 109,161.5 0.5,-0.2 0.8,-73.1 0.8,-323.4 l 52.5,0.5 0.5,415.5 -56.5,0.1 -217,-324.4 -1,323.8 h -53 l -0.3,-206.5 c -0.1,-113.6 0,-207.1 0.3,-207.7 0.3,-1 7,-1.3 56.5,-1.3 z m 707,0 h 29.5 c 22.7,0 29.6,0.3 29.9,1.3 0.2,0.6 38.3,93.7 84.6,206.7 46.3,113 84.4,206.1 84.6,206.8 0.3,0.9 -6.4,1.2 -62.6,1.2 l -4.9,-12.7 c -2.6,-7.1 -13.5,-35.4 -43.6,-113.3 h -173 l -18.9,52.3 c -10.4,28.7 -20.7,57 -26.6,73.7 h -58 l 0.4,-2.2 c 0.2,-1.3 35.5,-93.9 78.6,-205.8 43,-111.9 78.6,-204.5 79.1,-205.7 z m 20.1,79 c -2.2,7.9 -5.6,19.2 -7.4,25 -1.9,5.7 -14.3,39.5 -27.5,75 -13.3,35.4 -24.2,64.8 -24.2,65.2 0,0.4 31.3,0.8 69.5,0.8 65.7,0 69.5,-0.1 69.1,-1.8 -0.2,-1 -12.4,-33.7 -27.1,-72.7 -14.7,-39.1 -30.4,-82.6 -34.9,-96.8 -4.6,-14.2 -8.7,-25.7 -9.2,-25.7 -0.6,0 -1.8,3.7 -2.7,8.2 -0.9,4.5 -3.4,14.8 -5.6,22.8 z m 1219.4,-78.5 0.6,138.5 c 0.5,120.7 0.7,139.8 2.2,149 0.8,5.7 2.1,12.7 2.7,15.5 0.6,2.7 2,7.9 3.2,11.5 1.1,3.5 3.6,9.4 5.4,13 1.9,3.5 5.8,9.4 8.7,13 2.9,3.5 8.2,8.6 11.8,11.3 3.5,2.7 9.8,6.6 13.9,8.7 4.1,2 11.1,4.8 15.5,6.2 4.4,1.4 11.4,3.1 15.5,3.9 4.8,0.9 14.7,1.3 27,1.3 10.7,0 23.1,-0.6 27.5,-1.3 4.4,-0.7 12.1,-2.3 17,-3.6 5,-1.3 11.9,-3.6 15.5,-5.2 3.6,-1.7 9.2,-4.8 12.5,-7 3.3,-2.2 8.5,-6.7 11.5,-10 3.1,-3.3 7.5,-9.8 10.2,-14.9 2.6,-4.9 5.8,-13 7.3,-17.9 1.4,-5 3.5,-14 4.5,-20 1,-6.1 2.4,-18.2 3,-27 0.6,-10 1,-63.4 1,-265.5 h 54.8 l -0.2,139.2 c -0.2,126.7 -0.4,140.3 -2,151.3 -0.9,6.6 -2.8,17.1 -4.2,23.5 -1.4,6.3 -3.9,15.5 -5.6,20.5 -1.6,4.9 -4.9,12.6 -7.1,17 -2.3,4.4 -6.7,11.3 -9.8,15.5 -3,4.1 -9.5,11.2 -14.2,15.7 -4.8,4.5 -13.3,11.3 -18.9,15 -5.7,3.7 -14.2,8.4 -19,10.5 -4.8,2.1 -13.4,5.1 -19,6.7 -5.7,1.7 -14.3,3.7 -19.3,4.6 -4.9,0.8 -14.4,2 -21,2.6 -6.8,0.6 -19.8,0.9 -30,0.6 -9.9,-0.4 -23.2,-1.3 -29.5,-2.3 -6.3,-0.9 -16.4,-2.9 -22.5,-4.4 -6,-1.5 -15.3,-4.5 -20.5,-6.5 -5.2,-2.1 -12.6,-5.6 -16.5,-7.8 -3.8,-2.1 -9.9,-6.1 -13.5,-8.7 -3.6,-2.7 -10.1,-8.6 -14.5,-13.2 -4.4,-4.6 -9.8,-11 -12,-14.3 -2.2,-3.3 -5.6,-9.4 -7.7,-13.5 -2.1,-4.2 -5.1,-11.6 -6.7,-16.5 -1.7,-5 -3.9,-12.6 -5,-17 -1.1,-4.4 -2.9,-14.3 -4,-22 -1.1,-7.7 -2.5,-22.6 -3.1,-33 -0.5,-10.5 -1,-73.8 -1.1,-140.6 -0.1,-66.9 0.2,-121.9 0.6,-122.3 0.5,-0.4 13.1,-0.6 55,-0.1 z m 765.5,-0.5 1.9,4.2 c 1.1,2.3 39.2,95.2 84.7,206.3 45.4,111.1 82.8,202.7 83,203.7 0.4,1.6 -1.6,1.8 -61.6,1.8 l -1,-2.3 c -0.6,-1.2 -11.6,-29.5 -47.7,-123.2 h -173.5 l -45.3,125 -29.2,0.2 c -16.1,0.1 -29.3,0 -29.3,-0.2 0,-0.3 35.6,-93.4 79.2,-206.8 43.5,-113.4 79.6,-206.8 80.1,-207.5 0.7,-0.9 7.9,-1.2 58.7,-1.2 z m -36.2,70 c -2.2,9 -6.2,23.2 -8.9,31.5 -2.6,8.2 -15.6,43.8 -28.8,79 -13.2,35.2 -23.9,64.1 -23.8,64.2 0.1,0.1 31.6,0.1 69.9,0 l 69.6,-0.2 c -32.4,-86.1 -45.4,-120.7 -49.7,-132.5 -4.4,-11.9 -10.9,-30.5 -14.5,-41.5 -3.6,-11 -6.6,-20.6 -6.6,-21.3 0,-0.7 -0.4,-1.2 -1,-1.2 -0.5,0 -1.2,1.2 -1.5,2.7 -0.4,1.5 -2.4,10.2 -4.7,19.3 z m -6192.4,587 c 3.4,0 9.3,0.5 13.1,1 3.9,0.6 12.9,1.2 20,1.4 11.1,0.3 14,0.8 20,3 3.9,1.5 9.2,4.1 11.9,5.9 2.7,1.7 6.3,4.7 7.9,6.7 1.7,1.9 4.1,5.7 5.4,8.5 2,4.3 2.3,6.5 2.3,17 0,6.6 -0.7,16 -1.5,21 -0.9,4.9 -2.8,11.6 -4.3,14.8 -1.5,3.3 -4.5,7.6 -6.7,9.6 -2.8,2.6 -5.6,4.1 -9.2,4.9 -3.6,0.8 -6.8,0.9 -10,0.2 -2.6,-0.5 -6.1,-1.4 -7.8,-2 -1.6,-0.6 -5.9,-2.9 -9.5,-5.1 -3.6,-2.1 -9.9,-4.8 -14,-5.8 -4.1,-1.1 -12.7,-2.4 -19,-3 -6.3,-0.6 -18,-1.3 -26,-1.7 -13.9,-0.6 -15.5,-0.5 -40.5,3.6 -16.7,2.8 -26.3,4.8 -26.7,5.6 -0.4,0.8 -3,2.5 -10.8,6.4 l -7.2,-2.6 c -4,-1.3 -8.3,-2.5 -9.5,-2.5 -1.3,0.1 -4.2,1.3 -6.5,2.9 -2.4,1.6 -7,5.8 -10.2,9.3 -3.3,3.5 -8.9,10.9 -12.6,16.4 -3.6,5.5 -7.8,12.4 -9.3,15.5 -1.9,3.9 -3.1,8.6 -4.1,16.5 -1,7.7 -3.4,17.1 -8,32 -3.6,11.5 -9.5,30.6 -13,42.5 -3.6,11.8 -9.4,30.3 -13,41.2 -4.9,14.7 -6.6,21.2 -6.6,25.3 0,4.5 0.5,5.9 2.5,8 1.6,1.5 3.7,2.5 5.5,2.5 1.7,0 4.7,-0.9 6.8,-2 2,-1 8.9,-5.8 15.3,-10.7 6.4,-4.9 13.9,-10 16.5,-11.5 2.7,-1.5 11.2,-4.3 18.9,-6.3 7.7,-2 18.7,-5.2 24.5,-7.1 6.2,-2 15.2,-4 22,-4.9 6.3,-0.8 22.8,-2.5 36.5,-3.7 23.9,-2.2 25.3,-2.2 32,-0.6 6.7,1.6 7.6,1.5 33,-2.4 l 7.4,2.8 c 5.8,2.2 8.3,3.9 11.4,7.4 2.1,2.4 5.8,7.6 12.1,18.5 l -0.7,9.5 c -0.4,5.2 -1.5,12.4 -2.3,16 -0.9,3.5 -2.6,8.5 -3.9,11 -1.2,2.4 -3.9,5.9 -5.9,7.7 -1.9,1.8 -5.5,3.8 -7.8,4.4 -4,1.2 -5.2,0.9 -32.3,-8.2 l -29.5,2.5 c -16.2,1.4 -46.8,3.9 -68,5.5 -22.9,1.8 -41.9,3.8 -47,5 -4.7,1 -11.9,2.8 -16,4.1 -4.1,1.2 -11.1,3.7 -15.5,5.6 -4.4,1.9 -11.1,5.4 -15,7.8 -3.8,2.4 -9.7,7.2 -13.1,10.7 q -6.2,6.4 -9.7,13.9 c -2.5,5 -4.1,10.5 -5.1,17 -0.9,5.2 -3.5,17.3 -10.5,44.5 l 1.6,6 c 1.6,5.9 1.6,6.2 -2,24 -2,9.9 -4.1,23.8 -4.7,31 -0.9,9.7 -0.9,13.7 1.1,19 l 7.2,-0.7 c 4,-0.4 16.4,-1.3 27.7,-1.9 15,-0.9 24.8,-1 36.5,-0.2 12,0.8 20.1,0.7 32.5,-0.2 15.4,-1.2 17.5,-1.6 32.3,-6.4 10,-3.3 18.9,-5.5 24.5,-6.1 4.8,-0.6 11.9,-1 15.7,-1 3.9,0 11.5,-0.7 17,-1.6 5.5,-0.8 14.3,-2.6 19.5,-3.9 5.2,-1.3 23.7,-7 41,-12.5 17.3,-5.6 35.1,-11.7 39.5,-13.7 4.4,-1.9 8.7,-3.7 9.5,-4 0.8,-0.3 5.1,-5 9.5,-10.5 4.4,-5.5 9.4,-11.2 11,-12.7 1.7,-1.6 10.6,-8.3 36.5,-27.1 l -0.2,-14.8 c -0.2,-13.3 0.1,-16.3 3.1,-30.2 1.8,-8.6 4.3,-18.8 5.7,-22.8 2.3,-6.8 2.3,-7.5 0.9,-10.7 -1.4,-3.4 -1.3,-4.3 2.6,-18.3 2.2,-8.1 6.9,-23.3 10.4,-33.7 3.5,-10.5 11.6,-33 18,-50 6.4,-17.1 12.9,-32.8 14.5,-35 1.5,-2.2 6.5,-10.8 11,-19 4.4,-8.3 10.4,-20.2 13.1,-26.5 2.8,-6.4 7.8,-16.5 11.1,-22.5 3.3,-6.1 10.1,-17.6 15.1,-25.5 5,-8 12,-18.8 15.6,-24 3.6,-5.3 9.9,-14 14,-19.5 4.1,-5.5 10.5,-13.6 14.2,-18 3.7,-4.4 10.7,-11.9 15.6,-16.7 4.8,-4.7 11.7,-10.5 15.3,-12.7 3.6,-2.3 8.8,-4.9 11.5,-5.8 3.9,-1.3 7.5,-1.5 16.5,-1.1 6.3,0.3 14.2,1.3 17.5,2.2 3.3,0.9 8,2.9 10.5,4.4 3,1.8 5.6,4.6 7.8,8.2 1.7,3 3.7,7.7 4.3,10.5 0.5,2.7 1.3,8.3 1.6,12.5 0.4,5.5 -0.1,11.6 -2,23 -1.4,8.5 -3,19.3 -3.5,24 -0.7,5.4 -2.5,12.2 -5.1,19 -2.2,5.7 -4.3,13.2 -4.6,16.5 -0.4,3.3 -1.2,7.5 -1.8,9.5 -0.6,1.9 -1.1,5.3 -1.1,7.5 -0.1,3 -2.2,8.2 -8.3,20.5 -4.5,9.1 -11.5,25 -15.6,35.5 -4.1,10.4 -9,22.1 -10.9,26 -1.9,3.8 -7.3,12 -12.1,18.2 -4.8,6.2 -8.7,11.8 -8.7,12.5 0,0.7 -1.6,4.6 -3.6,8.8 -1.9,4.1 -5.3,10.4 -7.4,14 -2.2,3.5 -8.3,11.9 -13.7,18.6 -5.4,6.7 -12.7,17.3 -16.2,23.5 -3.5,6.3 -9.6,15.2 -13.5,19.9 -4,4.6 -11.7,13.9 -17.2,20.5 -5.5,6.6 -12.6,15.8 -15.8,20.5 -3.2,4.6 -10.3,14.4 -25.6,35 l 1,11.2 c 0.6,6.2 1.9,14.6 3.1,18.8 1.1,4.1 3.6,10.6 5.5,14.5 1.8,3.8 5.6,9.4 8.2,12.5 2.7,3 7.5,7.2 10.8,9.4 3.3,2.2 8.4,4.9 11.4,6.2 3,1.2 9,2.9 13.3,3.8 4.2,0.8 12.1,1.6 17.5,1.7 8.6,0.1 12,-0.5 29.2,-4.9 10.7,-2.7 21.8,-6 24.5,-7.2 2.8,-1.2 10.4,-5.8 17,-10.3 6.6,-4.4 13.1,-8.9 14.5,-9.9 1.4,-1.1 2.8,-1.5 3.2,-1.1 0.3,0.4 4.7,8.7 18.8,36.3 l -20.2,15.3 c -11.2,8.5 -24.1,18.1 -28.8,21.5 -4.7,3.4 -13.4,8.6 -19.5,11.7 -6,3 -15,6.7 -20,8.2 -8.3,2.4 -10.3,2.7 -26.5,2.6 -9.6,0 -27.4,-0.7 -39.5,-1.6 -17.9,-1.3 -23.2,-2 -28.5,-3.9 -3.6,-1.3 -8.7,-3.7 -11.5,-5.3 -2.7,-1.6 -7.9,-5.8 -11.6,-9.5 -3.6,-3.6 -8.4,-9.7 -10.7,-13.5 -2.2,-3.9 -5.4,-10.4 -7.1,-14.5 -1.6,-4.2 -4.3,-12.7 -5.9,-19 -1.6,-6.4 -3.4,-12.4 -3.9,-13.5 -0.6,-1.1 -2.4,-3.3 -6.8,-7.4 l -15,12.5 c -8.2,6.9 -17,14.4 -19.6,16.7 -2.5,2.3 -9.7,7.2 -16,10.9 q -11.4,6.8 -22.4,10.4 c -6,2 -19.8,6.9 -30.5,10.9 -10.7,4 -23.8,9.4 -29,12 -5.2,2.6 -11.7,5.6 -14.5,6.7 -2.7,1 -9.3,2.6 -14.5,3.4 -5.2,0.7 -14.4,2.7 -20.5,4.3 -6,1.7 -21.1,6.2 -33.5,10.1 -12.4,3.9 -28.8,8.9 -36.5,11.1 -7.7,2.2 -19.4,5.3 -38,9.7 l -13.5,-2.4 c -7.4,-1.3 -14.6,-2.4 -16,-2.4 -1.4,0 -6,1.3 -10.2,3 -7.4,2.8 -8.5,3 -23,2.9 -8.4,0 -20.6,-0.4 -27,-1 -6.5,-0.5 -13.9,-1.7 -16.4,-2.7 -2.6,-1 -5.6,-2.9 -6.6,-4.2 -1.9,-2.4 -1.9,-2.9 -0.5,-11 1.2,-6.5 1.2,-8.8 0.4,-9.8 -0.7,-0.6 -5.2,-1.6 -10.2,-2.2 -4.9,-0.6 -10.6,-1.8 -12.5,-2.8 -2.7,-1.4 -3.9,-2.9 -5.3,-6.7 -1.5,-4.4 -1.7,-7.3 -1.2,-21.5 0.3,-9.1 1,-23.7 1.6,-32.5 1,-14.1 1.4,-16.9 4,-22.8 1.6,-3.7 2.9,-7.3 2.9,-8 0.1,-0.7 -0.7,-3 -1.6,-5.2 -1.3,-3.2 -1.5,-5.9 -1,-13 0.4,-5 1.6,-16.2 2.7,-25 1.1,-8.8 3.6,-26.6 5.5,-39.5 2,-13 4.6,-27.4 6,-32 1.3,-4.7 3.5,-14.3 4.9,-21.3 2.4,-12.4 2.5,-13.2 0.3,-49.2 l 7.7,-28.5 c 4.2,-15.7 13,-48 19.6,-71.8 8.2,-29.8 13,-45.4 15.4,-50.2 1.9,-3.9 5.6,-9.6 8.1,-12.8 2.6,-3.2 7,-8.2 9.8,-11.1 2.8,-2.9 6.8,-6.4 8.9,-7.7 2.1,-1.4 6.8,-6.7 10.7,-12.2 3.9,-5.4 7.6,-10.5 8.3,-11.4 0.7,-0.8 7.5,-4.7 15.2,-8.6 7.9,-3.9 19.5,-10.9 26.5,-15.9 6.9,-4.9 17,-11.3 22.5,-14.3 5.5,-2.9 14.7,-8.3 20.5,-11.9 5.8,-3.6 13.7,-7.8 17.5,-9.3 3.9,-1.5 10.5,-3.4 14.8,-4.3 4.2,-0.8 17.1,-2 28.5,-2.6 11.4,-0.6 27.9,-2 36.7,-3.1 8.8,-1.1 16.2,-2.2 16.4,-2.4 0.3,-0.2 3.2,-0.4 6.5,-0.4 z m 260.1,165.1 c -3.8,4 -9.2,10.3 -11.8,13.9 -2.7,3.5 -6.7,9.9 -8.8,14.2 -2.1,4.3 -4.6,10.6 -5.4,14 -0.8,3.4 -1.5,8.1 -1.5,10.3 0,2.5 -1.3,6.8 -3.8,12 -2.1,4.4 -8.5,15.8 -14.2,25.5 -7.5,12.5 -12.2,21.9 -16.6,33 -3.3,8.5 -7.5,19.7 -9.1,25 -1.7,5.2 -3.4,11.3 -3.7,13.5 -0.5,2.8 -0.2,4.6 0.8,6 l 1.5,2 c 5.8,-3.1 9.5,-6.5 12.1,-9.5 2.5,-3.1 6.8,-9.1 9.5,-13.4 2.8,-4.3 7.3,-11.1 10,-15.2 2.8,-4.1 9.8,-14.1 15.6,-22.2 5.9,-8.1 13,-18.9 15.8,-24 2.8,-5.1 8.3,-16.1 12.2,-24.5 4,-8.4 9.3,-20.2 11.9,-26.2 2.6,-6.1 5.6,-14 6.8,-17.5 1.1,-3.6 2.4,-9 2.7,-12 0.4,-3.1 2,-10.7 3.7,-17 2.3,-9.2 2.7,-11.7 1.6,-12.3 -0.7,-0.4 -1.5,-0.7 -1.8,-0.7 -0.3,0 -5,4 -10.5,8.8 -5.5,4.9 -13.1,12.2 -17,16.3 z m 2506.5,-158.8 c 7,0.3 15.2,1.2 18.5,2.1 3.3,0.9 8,2.9 10.5,4.4 3,1.8 5.6,4.6 7.8,8.2 1.7,3 3.7,7.7 4.3,10.5 0.5,2.7 1.3,8.3 1.6,12.5 0.4,5.5 -0.1,11.6 -2,23 -1.4,8.5 -3,19.3 -3.5,24 -0.7,5.4 -2.5,12.2 -5.1,19 -2.2,5.7 -4.3,13.2 -4.6,16.5 -0.4,3.3 -1.2,7.5 -1.8,9.5 -0.6,1.9 -1.1,5.3 -1.1,7.5 -0.1,3 -2.2,8.2 -8.3,20.5 -4.5,9.1 -11.5,25 -15.6,35.5 -4.1,10.4 -9,22.1 -10.9,26 -1.9,3.8 -7.3,12 -12.1,18.2 -4.8,6.2 -8.7,11.8 -8.7,12.5 0,0.7 -1.6,4.6 -3.6,8.8 -1.9,4.1 -5.3,10.4 -7.4,14 -2.2,3.5 -8.3,11.9 -13.7,18.6 -5.4,6.7 -12.7,17.3 -16.2,23.5 -3.5,6.3 -9.6,15.2 -13.5,19.9 -4,4.6 -11.7,13.9 -17.2,20.5 -5.5,6.6 -12.6,15.8 -15.8,20.5 -3.2,4.6 -10.3,14.4 -25.6,35 l 1,11.2 c 0.6,6.2 1.9,14.6 3.1,18.8 1.1,4.1 3.6,10.6 5.5,14.5 1.8,3.8 5.6,9.4 8.2,12.5 2.7,3 7.5,7.2 10.8,9.4 3.3,2.2 8.4,4.9 11.4,6.2 3,1.2 9,2.9 13.3,3.8 4.2,0.8 12.1,1.6 17.5,1.7 8.6,0.1 12,-0.5 29.2,-4.9 10.7,-2.7 21.8,-6 24.5,-7.2 2.8,-1.2 10.8,-6.1 17.9,-10.9 7.1,-4.7 13.7,-9.5 14.7,-10.6 0.9,-1.1 6.2,-6.8 11.6,-12.7 5.4,-5.8 12.5,-12.7 15.8,-15.4 3.3,-2.6 8.9,-7.3 12.5,-10.3 3.6,-3.1 13.6,-12.6 22.4,-21.1 8.7,-8.6 21.3,-21.8 28,-29.4 6.6,-7.7 17,-20.1 22.9,-27.5 5.9,-7.5 15.4,-20.2 21.1,-28.1 5.7,-8 15.1,-21.3 20.9,-29.5 5.8,-8.3 12.4,-18.3 14.7,-22.3 2.4,-4.4 3.8,-8 3.5,-9.2 -0.3,-1.2 -1.6,-2.3 -3,-2.5 -1.4,-0.3 -6.4,0.2 -11.2,1 -7.3,1.3 -16.3,1.5 -97.8,1 l -11.9,-4.5 c -7,-2.7 -13.1,-5.7 -18.1,-10.3 l 0.7,-11.1 c 0.4,-6.1 1.4,-14.5 2.4,-18.6 0.9,-4.2 2.7,-9.8 4,-12.5 1.2,-2.8 4.1,-6.7 6.3,-8.8 2.3,-2.1 6,-4.2 8.4,-4.9 2.8,-0.7 9.1,-0.9 18.7,-0.4 8,0.3 19,1.2 24.5,2 8.7,1.2 11,1.2 17.5,-0.1 5.4,-1 10.6,-1.3 18.5,-0.8 6.1,0.3 13.9,1.1 17.5,1.6 5.4,0.8 8.7,0.6 31.5,-3.5 l 17.5,4.4 4.8,-2.1 c 2.6,-1.1 6.9,-4.2 9.6,-6.7 2.6,-2.6 7,-7.9 9.6,-11.7 2.6,-3.9 7.8,-12.7 11.5,-19.5 3.7,-6.9 9.2,-15.9 12.3,-20 3.2,-4.1 8.2,-9.3 11.2,-11.5 3,-2.3 7.8,-4.7 10.5,-5.5 3.3,-0.9 7.3,-1.1 11.5,-0.8 4.7,0.5 7.8,1.4 10.9,3.5 2.5,1.5 5.3,4.3 6.3,6.3 1,1.9 2.2,5.7 2.6,8.5 0.4,2.7 0.4,7.7 0,11 -0.5,3.3 -3.3,12 -6.3,19.5 -2.9,7.4 -5.8,15.5 -7.4,22.5 l 12.4,11.5 v 20.7 c 0,16.7 -0.4,22.3 -1.9,28.8 -1.3,5.7 -2.6,8.7 -4.5,10.5 -2.2,2.2 -4.9,2.9 -37.2,8.5 l -0.9,4 c -0.6,2.2 -1.7,6.7 -2.6,10 -0.9,3.3 -4.3,13.2 -7.6,22 -3.3,8.8 -8.9,24.7 -12.4,35.5 -3.6,10.7 -10.5,32.5 -15.3,48.5 -5,16.3 -11.1,39 -13.9,52 -2.8,12.6 -6.2,28.8 -7.6,36 -1.4,7.1 -2.8,16.6 -3.2,21 -0.6,6.7 -0.4,8.6 1.2,11.8 1.2,2.4 2.8,4 4.4,4.4 1.4,0.4 3.4,0.5 4.5,0.5 1.1,-0.1 5.2,-2.1 9,-4.4 3.9,-2.3 12.4,-7.8 19,-12.2 6.6,-4.4 18.3,-12.3 26,-17.7 7.7,-5.3 15.8,-11.7 18,-14.1 2.2,-2.4 6,-6.9 8.5,-10 3.9,-4.9 6.9,-7.1 22.5,-16 11.7,-6.8 21.2,-13.1 27.5,-18.4 5.2,-4.4 18.3,-14.5 29,-22.6 12.6,-9.4 20.6,-16.1 22.5,-18.8 1.7,-2.4 5.8,-6.9 9.1,-9.9 3.4,-3.1 12.8,-10.4 21,-16.3 8.2,-5.8 20.9,-15.9 28.2,-22.5 7.4,-6.5 16.1,-13.5 19.5,-15.6 3.4,-2.1 8.7,-4.8 11.7,-6 4.6,-1.9 7.5,-2.2 18,-2.2 10.6,0 13.1,0.3 16.4,2 2.1,1.1 4.3,2.7 4.8,3.7 0.6,1.3 -0.5,4.3 -4.2,11.3 -4,7.6 -4.8,9.9 -4,11.5 1,1.9 1.3,1.9 13.8,-2.1 7,-2.2 17.9,-5.4 24.2,-7.1 10.1,-2.6 12.5,-2.9 20,-2.3 4.7,0.3 12.3,1.5 17,2.6 4.7,1.1 11.4,3.4 15,5.1 4.3,2.1 9,5.6 13.6,10.2 4.8,4.8 8.1,9.1 10.2,13.6 1.7,3.5 4.1,10.1 5.3,14.5 1.8,6.5 2.2,10.8 2.3,23.5 0.1,13.1 -0.2,16.7 -2.1,23.7 -1.3,4.5 -3.9,12.2 -5.8,17 -2,4.8 -5.3,11.7 -7.4,15.3 -2.1,3.5 -5.9,8.8 -8.5,11.7 -4.5,5.2 -4.6,5.3 -3.1,8.3 0.8,1.6 2.5,3.6 3.8,4.5 1.2,0.8 3.6,1.5 5.2,1.4 1.7,0 5,-0.9 7.5,-2 2.5,-1.2 5.8,-3.1 7.4,-4.3 2.4,-1.8 3,-1.9 3.8,-0.6 0.5,0.8 4.7,9 9.4,18.2 4.6,9.2 8.4,17.1 8.4,17.5 0,0.4 -5.5,4.8 -12.2,9.8 -6.8,5 -16.8,12 -22.3,15.5 -5.5,3.5 -12.2,7.3 -15,8.6 -2.7,1.2 -7.9,3 -11.5,3.9 -3.6,1 -10.1,1.7 -14.5,1.7 -5.6,0 -9.6,-0.7 -13.5,-2.1 -3,-1.2 -7.1,-3.6 -9,-5.4 -1.9,-1.8 -4.4,-4.5 -7.5,-8.8 l -6,5.6 c -3.3,3.1 -8.5,7.6 -11.5,9.9 -3,2.3 -8.4,6.2 -12,8.6 -3.6,2.4 -11.2,6.7 -17,9.5 -5.8,2.9 -16.1,7.3 -23,9.8 -6.9,2.5 -15.9,5.5 -20,6.6 -4.1,1.1 -10.4,2.3 -14,2.6 -3.6,0.4 -10.1,1.3 -14.5,2.2 -5.3,1 -11,1.3 -17,1 -5.9,-0.4 -11.7,-1.5 -17,-3.2 -4.4,-1.5 -10.5,-4.1 -13.5,-5.8 -3,-1.8 -8.2,-5.4 -11.5,-8 -3.3,-2.6 -8.4,-7.6 -11.3,-11 -2.9,-3.4 -6.8,-9.4 -8.7,-13.2 -1.9,-3.9 -3.9,-10.2 -4.6,-14 -1,-5.4 -1,-8.8 -0.1,-14.5 0.6,-4.2 2.9,-13.3 5.2,-20.3 2.2,-7 4.3,-14.4 4.6,-16.5 0.5,-2.9 0.2,-4.1 -1.2,-5.4 -1.1,-0.8 -3,-1.8 -4.4,-2.1 -1.4,-0.4 -3.8,0.1 -5.5,0.9 -1.6,0.9 -10.3,6.3 -19.1,12.2 -12.1,8 -16.8,11.7 -18.7,14.7 -1.4,2.2 -4.5,5.9 -6.8,8.3 -2.4,2.4 -10.2,8.2 -17.4,12.9 -7.1,4.7 -14.6,9.7 -16.6,11.2 -2,1.4 -8.5,6.4 -14.5,11.1 -6,4.6 -19.4,16.5 -29.9,26.3 -10.4,9.8 -21.9,20 -25.5,22.8 -3.6,2.7 -9.2,6.2 -12.5,7.8 -3.3,1.6 -8.9,3.7 -12.5,4.6 -4.8,1.3 -9,1.6 -16,1.2 -6.6,-0.3 -11.3,-1.2 -15.5,-2.8 -3.3,-1.3 -7.7,-3.7 -9.9,-5.4 -2.1,-1.7 -5.4,-5.7 -7.2,-9 -1.8,-3.3 -3.8,-9 -4.5,-12.5 -0.8,-4.4 -1,-13.8 -0.6,-28.5 0.3,-12.1 1.2,-26.3 2.1,-31.5 0.8,-5.3 2.6,-12.7 3.9,-16.5 1.3,-3.9 2.9,-8.4 3.5,-10 0.6,-1.7 3.4,-15.2 11.3,-57 l 6.2,-12.4 c 6.1,-12 6.2,-12.3 4.2,-13.7 -1.4,-0.9 -2.6,-1 -4,-0.4 -1.1,0.6 -4.7,4.2 -8,8 -3.3,3.9 -9.4,10.1 -13.5,13.8 -4.1,3.7 -11.8,10.1 -17,14.3 -5.2,4.1 -21.4,16.9 -35.9,28.4 -17.7,14 -28.6,23.5 -33,28.5 -4.9,5.5 -13.4,12.7 -32.6,27.1 -14.3,10.8 -28.7,21.4 -32,23.4 -3.3,2.1 -9.6,5.5 -14,7.6 -4.4,2.1 -12,5 -17,6.5 -8.3,2.6 -10.2,2.8 -26.5,2.7 -9.6,0 -27.4,-0.7 -39.5,-1.6 -17.9,-1.3 -23.2,-2 -28.5,-3.9 -3.6,-1.3 -8.7,-3.7 -11.5,-5.3 -2.7,-1.6 -7.9,-5.8 -11.6,-9.5 -3.6,-3.6 -8.4,-9.7 -10.7,-13.5 -2.2,-3.9 -5.4,-10.4 -7.1,-14.5 -1.6,-4.2 -4.3,-12.7 -5.9,-19 -1.6,-6.4 -3.4,-12.4 -3.9,-13.5 -0.6,-1.1 -2.4,-3.3 -6.8,-7.5 l -11,9.3 c -6,5.1 -21.6,17.8 -34.5,28.2 -12.9,10.4 -27.5,21.6 -32.5,25 -4.9,3.4 -12.8,7.9 -17.5,10.2 -4.7,2.2 -11.4,4.9 -15,6.1 -3.6,1.1 -9.6,2.6 -13.5,3.3 -4.3,0.7 -11.4,0.9 -18.5,0.6 -6.9,-0.4 -14.4,-1.5 -18.7,-2.7 -4,-1.1 -9.9,-3.3 -13,-4.9 -3.2,-1.6 -8.4,-5.3 -11.6,-8.3 -3.3,-2.9 -7.4,-7.8 -9.2,-10.8 -1.8,-3.1 -4.4,-8.9 -5.8,-13 -1.4,-4.2 -3,-11.1 -3.6,-15.5 -0.6,-4.4 -1.3,-9.4 -1.6,-11 -0.2,-1.7 -1.6,-4.5 -5.5,-9.5 l -6.2,5.2 c -3.5,2.9 -14.3,10.4 -24.1,16.8 -9.8,6.3 -21.1,14.2 -25,17.5 -4,3.3 -14.6,12.1 -23.7,19.5 -9.1,7.4 -19,15 -22,17 -3,2.1 -10.2,6.3 -16,9.5 -5.8,3.2 -16.6,8.6 -24,12 -7.4,3.4 -17.5,7.7 -22.5,9.4 -8.4,3 -9.6,3.2 -18.5,2.7 -5.5,-0.3 -12.2,-1.4 -16,-2.6 -3.6,-1.1 -8.3,-3.4 -10.5,-5.1 -2.2,-1.7 -5.2,-4.8 -6.6,-6.8 -1.4,-2 -3.3,-5.9 -4.2,-8.6 -0.9,-2.8 -1.9,-7.5 -2.2,-10.5 -0.4,-3.1 -0.2,-8.2 0.4,-11.5 0.6,-3.3 2.6,-9.2 4.5,-13 2.2,-4.5 5.9,-9.7 10.5,-14.5 6.1,-6.5 7.2,-8.2 7.6,-12 0.5,-4 0.1,-5.3 -3.3,-11 -2.2,-3.6 -6.4,-11.6 -15.2,-29 l 5.1,-6.3 c 2.8,-3.4 5.8,-7.5 6.7,-9 1.2,-1.8 9,-6.7 25.2,-15.6 22.2,-12.1 23.8,-13.2 28.8,-19.3 2.9,-3.5 7.2,-8.6 9.6,-11.3 2.8,-3.3 6.7,-6.2 11.2,-8.5 3.8,-1.9 10.1,-6.2 13.9,-9.6 3.9,-3.3 10.6,-8.7 15,-12.1 4.4,-3.3 11.8,-8 16.5,-10.4 4.7,-2.5 11.9,-6.9 16.2,-9.9 4.2,-3.1 13.7,-10.1 21,-15.7 7.3,-5.6 19.6,-14.4 27.3,-19.6 7.7,-5.2 18.5,-12.1 24,-15.3 5.5,-3.2 15,-8.2 21,-11 6.1,-2.9 14.4,-6.4 18.5,-7.8 4.1,-1.4 10.8,-3.2 14.8,-4.1 4,-0.8 10.7,-1.5 15,-1.6 4.2,0 10,0.7 12.7,1.5 2.8,0.8 6.2,2.7 7.7,4.3 1.5,1.5 3.2,4 3.8,5.5 0.5,1.5 1,4.4 1,6.5 0,2.1 -0.6,6.1 -1.5,9 -0.9,3.3 -2.9,6.8 -5.4,9.5 -2.1,2.4 -10.5,8.3 -18.7,13.4 -10.3,6.3 -17.3,11.5 -22.9,16.8 -4.4,4.3 -11.4,10.5 -15.5,13.8 -4.1,3.3 -11.3,8.6 -16,11.7 -4.7,3.2 -9.9,7.5 -11.6,9.6 -1.7,2.2 -6.7,6.7 -11,10 -4.4,3.3 -10.6,7.7 -13.9,9.9 -3.5,2.2 -7.7,6.2 -10.1,9.5 -2.3,3 -7.9,9 -12.5,13.1 -4.6,4.2 -13.1,11.4 -18.9,16 -5.8,4.7 -15.4,12.1 -21.4,16.5 -9.1,6.7 -13.1,10.7 -25.4,25 -8,9.3 -15.2,17.7 -16.1,18.7 -1.4,1.5 -1.4,1.9 -0.1,3.3 0.8,0.8 2.4,1.5 3.5,1.5 1.1,0 7.4,-2.7 14,-6 9.2,-4.6 16.8,-9.6 32,-21.1 11,-8.4 24.3,-18.4 29.5,-22.3 5.2,-3.9 13.5,-9 18.3,-11.3 6.2,-3.1 11,-6.4 16.5,-11.6 4.2,-4 10,-9.1 12.7,-11.4 2.8,-2.2 8.4,-6.3 12.5,-9.1 4.1,-2.7 10,-6.2 13,-7.8 3,-1.5 8.7,-3.8 12.5,-5.2 4.7,-1.6 10.2,-2.6 16.5,-3 8.4,-0.4 10,-0.3 13.8,1.6 2.3,1.2 5.1,3.4 6.1,4.9 1.1,1.5 2.8,4.8 3.7,7.3 1.6,3.9 1.8,7.6 1.5,30.5 -0.2,21.4 0,27 1.3,31.7 1,3.7 3.2,7.6 5.9,11 2.5,3.1 6.5,6.4 9.8,8.2 3.8,2 7.3,3 11.9,3.4 5.4,0.4 7.4,0.1 11.5,-1.9 2.9,-1.3 8.6,-5.8 13.5,-10.5 4.7,-4.5 10.8,-9.4 13.5,-10.9 3.7,-1.9 7.2,-5.3 13,-12.7 4.4,-5.5 9.4,-11.2 11,-12.7 1.7,-1.6 10.6,-8.3 36.5,-27.1 l -0.2,-14.8 c -0.2,-13.3 0.1,-16.3 3.1,-30.2 1.8,-8.6 4.3,-18.8 5.7,-22.8 2.3,-6.8 2.3,-7.5 0.9,-10.7 -1.4,-3.4 -1.3,-4.3 2.6,-18.3 2.2,-8.1 6.9,-23.3 10.4,-33.7 3.5,-10.5 11.6,-33 18,-50 6.4,-17.1 12.9,-32.8 14.5,-35 1.5,-2.2 6.5,-10.8 11,-19 4.4,-8.3 10.4,-20.2 13.1,-26.5 2.8,-6.4 7.8,-16.5 11.1,-22.5 3.3,-6.1 10.1,-17.6 15.1,-25.5 5,-8 12,-18.8 15.6,-24 3.6,-5.3 9.9,-14 14,-19.5 4.1,-5.5 10.5,-13.6 14.2,-18 3.7,-4.4 10.7,-11.9 15.6,-16.6 4.8,-4.7 11.1,-10.1 13.8,-12 2.8,-1.8 7.5,-4.4 10.5,-5.7 5,-2.1 6.6,-2.3 18,-1.9 z m -59.5,158.8 c -3.8,4 -9.2,10.3 -11.8,13.9 -2.7,3.5 -6.7,9.9 -8.8,14.2 -2.1,4.3 -4.6,10.6 -5.4,14 -0.8,3.4 -1.5,8.1 -1.5,10.3 0,2.5 -1.3,6.8 -3.8,12 -2.1,4.4 -8.5,15.8 -14.2,25.5 -7.5,12.5 -12.2,21.9 -16.6,33 -3.3,8.5 -7.5,19.7 -9.1,25 -1.7,5.2 -3.4,11.3 -3.7,13.5 -0.5,2.8 -0.2,4.6 0.8,6 l 1.5,2 c 5.8,-3.1 9.5,-6.5 12.1,-9.5 2.5,-3.1 6.8,-9.1 9.5,-13.4 2.8,-4.3 7.3,-11.1 10,-15.2 2.8,-4.1 9.8,-14.1 15.6,-22.2 5.9,-8.1 13,-18.9 15.8,-24 2.8,-5.1 8.3,-16.1 12.2,-24.5 4,-8.4 9.3,-20.2 11.9,-26.2 2.6,-6.1 5.6,-14 6.8,-17.5 1.1,-3.6 2.4,-9 2.7,-12 0.4,-3.1 2,-10.7 3.7,-17 2.3,-9.2 2.7,-11.7 1.6,-12.3 -0.7,-0.4 -1.5,-0.7 -1.8,-0.7 -0.3,0 -5,4 -10.5,8.8 -5.5,4.9 -13.1,12.2 -17,16.3 z m 572.2,225.5 c -2.7,2.1 -9.7,10.1 -15.5,17.7 -8.3,10.8 -11.9,14.6 -16.2,17.2 -3.1,2 -9.1,4.3 -14,5.5 -6.4,1.6 -9.3,2.9 -11.8,5.3 -1.9,1.8 -5.7,7.9 -8.7,14.2 -2.9,6 -7,15.5 -9,21 -2.1,5.5 -4.4,13.3 -5.2,17.5 -1,4.6 -1.3,9.6 -0.9,13 0.3,3.1 1.6,6.9 2.9,9 1.3,1.9 3.9,4.5 5.8,5.7 1.9,1.3 5.9,2.8 8.9,3.4 3.3,0.7 9.4,0.9 15,0.5 5.2,-0.3 12.4,-1.3 16,-2.2 3.6,-0.8 10.6,-3.5 15.5,-5.8 5,-2.4 11.9,-6.5 15.5,-9.2 3.6,-2.6 10.1,-8.6 14.5,-13.3 4.4,-4.7 12.7,-13.3 18.5,-19.2 5.9,-5.9 11.3,-12.3 12.2,-14.5 1,-2.2 4.4,-11.4 7.8,-20.4 l 6,-16.5 c -4.6,-10.9 -7.4,-16.5 -9.2,-19.5 -1.8,-3 -4.6,-6.2 -6.3,-7.2 -1.6,-0.9 -7,-2.4 -12,-3.3 -4.9,-0.8 -12.6,-1.8 -17,-2.2 l -8,-0.6 z m 1949.4,-384.3 c 6.9,0.3 15.1,1.2 18.5,2.1 3.3,0.9 8,2.9 10.5,4.4 2.9,1.8 5.6,4.6 7.7,8.2 1.8,3 3.7,7.7 4.3,10.5 0.6,2.7 1.3,8.4 1.6,12.5 0.4,5.5 -0.1,11.6 -1.9,23 -1.4,8.5 -3,19.3 -3.6,24 -0.7,5.4 -2.5,12.3 -5,19 -2.2,5.8 -4.3,13.2 -4.7,16.5 -0.3,3.3 -1.1,7.6 -1.7,9.5 -0.7,1.9 -1.2,5.3 -1.2,7.5 0,3.1 -2.1,8.3 -8.2,20.5 -4.5,9.1 -11.6,25 -15.7,35.5 -4.1,10.4 -9,22.1 -10.8,26 -1.9,3.8 -7.4,12 -12.1,18.2 -4.8,6.2 -8.7,11.8 -8.7,12.5 0,0.7 -1.6,4.7 -3.6,8.8 -2,4.1 -5.4,10.4 -7.5,14 -2.1,3.6 -8.3,12 -13.7,18.7 -5.3,6.7 -12.6,17.2 -16.1,23.5 -3.6,6.2 -9.7,15.1 -13.6,19.8 -3.9,4.7 -11.7,13.9 -17.1,20.5 -5.5,6.6 -12.7,15.8 -15.9,20.5 -3.2,4.7 -10.3,14.4 -25.5,35 l 0.9,11.2 c 0.6,6.2 2,14.7 3.1,18.8 1.1,4.1 3.6,10.6 5.5,14.5 1.9,3.8 5.6,9.5 8.3,12.5 2.6,3 7.5,7.3 10.7,9.4 3.3,2.2 8.4,5 11.5,6.2 3,1.2 8.9,2.9 13.2,3.8 4.3,0.9 12.1,1.6 17.5,1.7 8.6,0.1 12,-0.5 29.3,-4.9 10.7,-2.7 21.7,-5.9 24.5,-7.2 2.7,-1.2 10.4,-5.8 17,-10.2 6.6,-4.5 13.1,-9 14.5,-10 1.3,-1 2.7,-1.5 3.1,-1.1 0.3,0.4 4.7,8.8 18.9,36.3 l -20.3,15.3 c -11.1,8.5 -24.1,18.2 -28.7,21.5 -4.7,3.4 -13.5,8.6 -19.5,11.7 -6.1,3 -15.1,6.7 -20,8.2 -8.3,2.5 -10.4,2.7 -26.5,2.7 -9.7,-0.1 -27.4,-0.8 -39.5,-1.6 -18,-1.3 -23.2,-2.1 -28.5,-4 -3.6,-1.3 -8.8,-3.7 -11.5,-5.3 -2.8,-1.6 -8,-5.8 -11.6,-9.4 -3.6,-3.7 -8.4,-9.8 -10.7,-13.6 -2.3,-3.9 -5.5,-10.4 -7.1,-14.5 -1.7,-4.1 -4.3,-12.7 -5.9,-19 -1.6,-6.3 -3.4,-12.4 -4,-13.5 -0.6,-1.1 -2.3,-3.2 -6.7,-7.4 l -12.5,10.5 c -6.9,5.8 -15.9,13.1 -20,16.2 -4.2,3.2 -11.6,8.9 -16.5,12.7 -5,3.7 -13.3,9.6 -18.5,13.1 -5.3,3.4 -13.6,8.3 -18.5,10.8 -5,2.6 -13.3,6 -18.5,7.7 -5.3,1.6 -12.9,3.4 -17,3.9 -4.2,0.4 -10.7,2 -14.5,3.4 -3.9,1.4 -10.2,3 -14,3.5 -3.9,0.6 -12.4,1.1 -19,1.1 -6.6,0 -16,-0.7 -20.8,-1.5 -4.8,-0.8 -12.2,-2.9 -16.5,-4.5 -4.3,-1.7 -10.8,-5.3 -14.5,-8 -4,-3 -8.5,-7.6 -11.2,-11.3 -2.4,-3.4 -7.7,-12.5 -11.7,-20.1 -4.7,-8.9 -8.7,-15.1 -11.1,-17.3 q -3.7,-3.3 -6.7,-3.3 c -1.7,0 -4.8,0.9 -7,2 -2.2,1.1 -6.1,3.8 -13,10 l -3.4,-7.3 c -1.8,-4 -6.3,-12.4 -16.6,-30.2 l 5.7,-6.9 c 3.2,-3.8 8.9,-9.7 12.8,-13 3.8,-3.3 10,-8.2 20.5,-15.6 l 1.5,-8.8 c 0.8,-4.8 1.9,-12.5 2.5,-17.2 0.7,-5.9 2.5,-12 5.6,-20 2.6,-6.3 6.8,-15.9 9.5,-21.3 2.7,-5.3 7.7,-14.6 11.3,-20.5 3.5,-5.9 8.8,-14.1 11.7,-18.3 3.4,-4.8 14.1,-16.1 29.4,-31 23.4,-22.8 24.3,-23.6 35.5,-29.6 9.3,-5 13.2,-6.5 20.5,-7.9 6.7,-1.2 12.3,-1.5 22,-1.2 7.7,0.3 15,1.2 18,2.1 2.7,0.9 6.9,3.3 9.3,5.4 3,2.5 5.7,6.4 8.3,11.8 2.1,4.4 4.8,11.6 5.9,16 1.2,4.4 2.2,10.2 2.2,13 0.2,3.9 -1.2,8.9 -6.1,22.5 -3.5,9.6 -7.8,20.2 -9.6,23.5 -1.9,3.3 -6.2,9.8 -9.7,14.5 -3.4,4.7 -13.5,15.8 -22.3,24.8 -8.8,9 -21.2,21 -27.5,26.6 -6.4,5.6 -16.6,14.4 -22.9,19.6 -8.5,7.1 -11.8,10.6 -13.4,14 -1.6,3.6 -2,5.8 -1.6,11 0.3,3.7 1.5,8.2 2.6,10.5 1.1,2.2 3.4,5.1 4.9,6.6 1.6,1.4 4.4,3.5 6.4,4.6 1.9,1.2 6.4,3 10,4.1 3.5,1.1 10.3,2.7 15,3.7 7.3,1.5 9.7,1.5 18,0.5 5.2,-0.6 13.7,-2.1 19,-3.2 5.2,-1.1 14,-3.6 19.5,-5.5 5.5,-2 15,-5.9 21.2,-8.9 11.2,-5.4 11.3,-5.5 19.1,-15.2 4.4,-5.3 9,-10.7 10.3,-11.8 1.3,-1.1 9.9,-7.6 35.9,-26.4 l -0.2,-14.8 c -0.2,-13.2 0.1,-16.3 3,-30.2 1.8,-8.5 4.4,-18.8 5.7,-22.8 2.3,-6.7 2.4,-7.5 1,-10.7 -1.5,-3.4 -1.3,-4.2 2.5,-18.3 2.3,-8.1 6.9,-23.3 10.4,-33.7 3.5,-10.5 11.7,-33 18.1,-50 6.4,-17.1 12.9,-32.8 14.4,-35 1.6,-2.2 6.5,-10.8 11,-19 4.5,-8.3 10.4,-20.2 13.2,-26.5 2.7,-6.3 7.7,-16.5 11,-22.5 3.4,-6.1 10.2,-17.5 15.1,-25.5 5,-8 12,-18.8 15.6,-24 3.6,-5.2 9.9,-14 14,-19.5 4.1,-5.5 10.5,-13.6 14.2,-18 3.7,-4.4 10.8,-11.9 15.6,-16.6 4.9,-4.7 11.1,-10.1 13.9,-12 2.7,-1.8 7.4,-4.4 10.5,-5.7 5,-2.1 6.5,-2.3 18,-1.9 z m -59.5,158.8 c -3.9,4.1 -9.2,10.3 -11.9,13.9 -2.7,3.6 -6.6,10 -8.8,14.2 -2.1,4.3 -4.5,10.6 -5.3,14 -0.8,3.5 -1.5,8.1 -1.5,10.3 0,2.6 -1.4,6.8 -3.9,12 -2.1,4.4 -8.5,15.9 -14.2,25.5 -7.4,12.5 -12.1,21.9 -16.5,33 -3.4,8.5 -7.5,19.8 -9.2,25 -1.7,5.2 -3.3,11.3 -3.7,13.5 -0.4,2.8 -0.2,4.6 0.8,6 l 1.5,2 c 5.8,-3.1 9.6,-6.5 12.1,-9.5 2.5,-3 6.8,-9 9.6,-13.3 2.7,-4.3 7.2,-11.2 10,-15.3 2.7,-4 9.7,-14 15.6,-22.2 5.8,-8.1 12.9,-18.9 15.7,-24 2.8,-5.1 8.4,-16.1 12.3,-24.5 3.9,-8.4 9.2,-20.2 11.8,-26.2 2.6,-6.1 5.7,-13.9 6.8,-17.5 1.2,-3.6 2.4,-9 2.8,-12 0.3,-3 2,-10.7 3.6,-17 2.4,-9.2 2.7,-11.7 1.7,-12.3 -0.8,-0.4 -1.6,-0.7 -1.8,-0.7 -0.3,0 -5,4 -10.5,8.9 -5.5,4.8 -13.2,12.1 -17,16.2 z m -309.6,174.9 c -3.5,3.5 -9.5,10.5 -13.2,15.5 -3.7,4.9 -8.5,12.4 -10.7,16.5 -2.1,4.1 -4.2,9.5 -4.6,12 -0.6,3.7 -0.4,4.7 1.2,5.7 1,0.7 2.9,1.3 4.1,1.3 1.2,0 3.5,-0.6 5,-1.4 1.5,-0.7 4.4,-3.8 6.5,-6.7 2,-3 5.9,-7.1 8.5,-9.1 2.6,-2 8.7,-7.4 13.4,-12 6.1,-5.8 9.5,-10 11.3,-13.8 1.6,-3.5 2.5,-7.3 2.5,-10.3 0.1,-3.4 -0.5,-5.3 -1.9,-6.7 -1.1,-1.1 -3.1,-2 -4.3,-2 -1.2,0 -4.3,1 -6.7,2.2 -2.5,1.2 -7.5,5.2 -11.1,8.8 z M 7957.2,3715.1 c 5.5,0.2 7.4,0.8 10.9,3.3 2.4,1.6 6.5,5.9 9.2,9.5 2.6,3.6 6,9.6 7.5,13.5 1.6,4.4 2.8,9.8 3.1,14.5 0.4,6.1 0,8.6 -1.8,13.5 -1.8,4.7 -3.8,7.5 -9.8,13.5 -5.6,5.5 -10,8.7 -16.7,12.1 -4.9,2.6 -11.8,5.7 -15.4,7 -3.8,1.4 -8.3,4 -11,6.5 -2.5,2.2 -6.3,5 -8.5,6.1 -2.2,1.2 -6.7,2.6 -10,3.2 -3.5,0.7 -8.7,2.7 -12.3,4.9 -3.4,2 -9.2,5.8 -13,8.5 -5.1,3.7 -8.9,5.4 -15.7,7.2 -8.8,2.3 -9.2,2.6 -15,9 -5.2,5.6 -6.9,6.8 -12.3,8.5 -3.4,1.1 -7.7,2 -9.5,2 -1.8,0 -4.6,-0.8 -6.2,-1.8 -1.7,-1 -3.8,-3.4 -4.7,-5.3 -0.9,-1.9 -1.9,-6.8 -2.3,-10.9 -0.5,-6 -0.3,-8 0.9,-9.8 0.9,-1.2 4.4,-4.1 7.8,-6.4 3.4,-2.3 10.5,-8.3 15.8,-13.3 5.2,-5.1 16.2,-14.3 24.5,-20.6 8.2,-6.3 18.8,-13.6 23.5,-16.3 4.6,-2.6 11.4,-7.4 14.9,-10.5 3.5,-3.1 8.3,-8.1 10.5,-11.1 2.8,-3.8 4.7,-7.8 5.9,-12.5 1,-3.9 2.4,-8.1 3.2,-9.5 0.7,-1.4 3.2,-4.4 5.6,-6.8 2.4,-2.3 6.6,-5.1 9.4,-6.2 3.6,-1.5 6.8,-2 11.5,-1.8 z m 2775,23.8 c 5.9,0 11.1,0.5 14,1.4 2.4,0.9 5.7,2.8 7.2,4.3 1.5,1.5 3,4.4 3.4,6.3 0.4,2.3 -0.4,7.3 -2.4,15 -1.7,6.3 -5.2,17.3 -7.8,24.5 -2.5,7.1 -6.2,16.1 -8,20 -1.9,3.8 -5.3,9.2 -7.7,11.9 -2.3,2.7 -6.9,6.8 -10.2,9.2 -3.3,2.3 -11.7,7.1 -18.5,10.6 -6.9,3.5 -15,6.9 -18,7.6 -3.1,0.7 -6.9,1 -8.5,0.7 -1.7,-0.3 -9.1,-0.9 -30,-2.2 l -3.8,-4.4 c -2.1,-2.4 -4.5,-6.4 -5.4,-8.9 -0.8,-2.5 -1.8,-8.8 -2.1,-14 -0.5,-8.9 -0.4,-9.9 2.2,-15.5 1.5,-3.3 4.7,-8.5 7,-11.5 2.4,-3 8.1,-9.1 12.7,-13.5 5.7,-5.5 10.7,-9.2 15.9,-11.8 4.1,-2.1 8.1,-3.8 9,-3.8 0.8,0 6.1,-4.5 11.7,-10 5.6,-5.4 11.9,-10.6 14,-11.5 2.1,-0.9 6.5,-2.2 9.8,-3 3.3,-0.7 10.2,-1.3 15.5,-1.4 z m 404.2,145 c 5,0 6.1,0.3 8.4,2.7 2.7,2.8 2.7,2.9 2.1,12.8 -0.4,5.5 -1.8,14.3 -3.1,19.5 -1.3,5.2 -3.8,13.1 -5.6,17.5 -1.7,4.4 -5.1,11.5 -7.6,15.7 -2.4,4.3 -4.4,8.8 -4.4,10 0,1.3 -0.9,5.7 -1.9,9.8 -1.1,4.1 -3.6,11.1 -5.7,15.5 -2.1,4.4 -6.8,12.5 -10.5,18 -3.7,5.5 -7.1,10.9 -7.7,12 -0.6,1.1 -2.5,6.7 -4.2,12.5 -1.8,6.4 -4.8,13.6 -7.7,18.5 -2.5,4.4 -11,17.7 -18.9,29.5 -7.9,11.8 -16.5,24.2 -19.1,27.5 -3.1,3.8 -5.3,7.8 -6.1,11 -0.8,2.7 -2.8,7.4 -4.5,10.4 -1.8,3 -7.7,10 -13.2,15.6 -5.5,5.6 -13.9,13.3 -18.7,17.1 -4.8,3.8 -15,12.8 -22.8,20.1 -8.7,8.3 -15.8,14.1 -18.8,15.5 -3.4,1.5 -7.3,2.3 -13.7,2.6 -6.1,0.2 -11.3,-0.2 -15.8,-1.2 -3.7,-0.9 -9.3,-2.9 -12.4,-4.4 -3.1,-1.5 -7.9,-5.1 -10.8,-8.2 -2.9,-3 -6.7,-8.3 -8.4,-11.8 -1.7,-3.4 -4,-9.9 -5.1,-14.5 -1.1,-4.5 -2.3,-12 -2.7,-16.7 -0.3,-5.3 -0.1,-10.6 0.6,-14 1,-4.9 0.9,-6.1 -1,-11 -1.1,-3 -3,-9.1 -4,-13.5 -1.2,-5.1 -1.9,-11.7 -2,-18 0,-5.5 -0.4,-14.1 -0.9,-19 -0.7,-7.2 -0.6,-9.7 0.5,-12.5 0.8,-1.9 1.5,-3.7 1.5,-4 0,-0.3 -1.1,-1.1 -2.5,-1.8 -2.3,-1.1 -3,-0.8 -8.8,3.6 -3.4,2.7 -12.1,10 -19.2,16.3 -7.2,6.3 -18.2,16.2 -24.5,22.1 -7.5,7 -17,14.4 -27,21.2 -8.6,5.7 -22.3,14.4 -30.5,19.3 -8.3,5 -19.7,11.3 -25.3,14.2 -5.6,2.8 -14.4,6.5 -28.7,11.3 l -17.5,-0.5 c -9.7,-0.3 -20.5,-1.1 -24,-1.7 -3.6,-0.6 -9.5,-2.1 -13,-3.2 -4.4,-1.5 -8,-3.6 -10.9,-6.3 -2.4,-2.2 -6.2,-6.7 -8.5,-10 -2.2,-3.3 -7.4,-13 -11.5,-21.5 -5.6,-11.7 -9.1,-17.5 -14.1,-23.5 -3.7,-4.4 -8.7,-10.9 -11.2,-14.5 -2.5,-3.6 -6.1,-7.8 -7.9,-9.4 -3,-2.5 -4,-2.8 -7.4,-2.2 -2.2,0.4 -7.2,2.4 -11,4.4 -3.9,2.1 -9.7,5.8 -13,8.2 -3.3,2.4 -10,7.8 -14.9,12 -4.9,4.1 -9.4,8.2 -10,9.1 -0.6,0.9 -11,8.5 -23.1,16.8 -12.1,8.3 -24.3,16.3 -27,17.6 -2.8,1.3 -8,3 -11.5,3.9 -3.6,0.9 -9.9,1.6 -14,1.6 -4.2,0 -10.2,-0.7 -13.5,-1.5 -3.3,-0.9 -8.5,-2.8 -11.5,-4.2 -3.6,-1.7 -8.3,-5.5 -13.5,-10.8 -5.2,-5.3 -10.7,-12.4 -15.5,-20.1 -6.2,-9.8 -10.6,-15.2 -42.5,-48.6 l -4.5,0.5 c -2.7,0.3 -8.7,2.6 -14.5,5.6 -5.5,2.8 -17.2,10.2 -26,16.5 -8.8,6.4 -20.7,13.9 -26.5,16.8 -9.4,4.8 -10.9,6 -16,12.3 -3,3.8 -9.1,10.6 -13.6,15 -4.4,4.4 -14.5,13.8 -22.5,20.9 -7.9,7.1 -20.4,17.9 -27.8,24 -7.3,6.1 -16.7,13.7 -21,16.8 -4.6,3.5 -10.3,6.7 -14.1,8 -5.5,1.9 -8.7,2.3 -19.5,2.3 -11.1,0 -13.6,-0.3 -16.9,-2 -2.2,-1.1 -4.5,-3.1 -5.2,-4.5 -0.7,-1.4 -2.1,-7.9 -4.7,-26.5 l 4,-10 c 2.3,-5.5 6.2,-15.6 8.8,-22.5 2.5,-6.9 8.9,-24.4 14.2,-39 5.2,-14.6 10.3,-29 11.3,-32 1,-3 3.4,-9.1 5.4,-13.5 1.9,-4.4 3.8,-10.3 4.2,-13 0.5,-4.1 0.2,-5.4 -1.3,-6.8 -1.5,-1.5 -3.1,-1.8 -8.3,-1.5 -5.4,0.3 -7.6,1 -12.5,4 -3.3,2 -10.1,7.1 -15,11.4 -4.9,4.3 -13.4,11.8 -19,16.7 -5.5,4.8 -13.2,10.9 -17,13.4 -3.9,2.6 -11.9,8.5 -17.9,13.2 -6.6,5.3 -11.7,10.1 -13.1,12.6 -1.3,2.2 -3.3,4.8 -4.4,5.7 -2.1,1.8 -2.2,1.7 -5.5,-5.5 -1.8,-4 -6.3,-12.3 -16.6,-29.7 l 5.3,-6.3 c 2.9,-3.4 7.6,-8 10.3,-10.2 2.8,-2.2 9.9,-7.9 15.9,-12.6 6,-4.8 21.3,-18.5 34,-30.4 12.6,-12 33.5,-31.5 46.3,-43.4 12.9,-11.9 27.6,-25.4 32.7,-30.1 5.2,-4.7 12.4,-10.4 16.2,-12.6 3.7,-2.3 9.7,-5.3 13.3,-6.7 3.5,-1.4 10.3,-3.3 15,-4.3 5.9,-1.1 11.5,-1.5 18.5,-1.2 7.8,0.3 11.1,0.9 15.4,2.8 2.9,1.4 6.8,4.1 8.5,6 1.8,1.9 4.2,6.2 5.5,9.5 1.9,4.7 2.4,8 2.5,15.5 0,6.9 -0.6,11.9 -2.3,18.5 -1.3,4.9 -5.2,17.5 -8.6,28 -3.5,10.4 -9.3,26.9 -13,36.5 -3.6,9.6 -10.1,24.4 -14.3,32.9 -6.8,13.6 -7.7,16 -7.7,20.8 0,4 0.4,5.8 1.6,6.7 1.4,0.9 2.4,0.4 5.5,-2.4 2.1,-1.9 5.5,-5.5 7.4,-8 2,-2.5 8.5,-8.3 14.5,-13 6,-4.7 12.5,-10.3 14.4,-12.4 2,-2.1 5.8,-6.4 8.6,-9.4 2.7,-3 8.1,-7.8 12,-10.7 3.8,-2.9 9.7,-8 13,-11.5 3.3,-3.4 8.9,-8.4 12.5,-11 3.5,-2.6 9.6,-6.7 13.5,-9 3.8,-2.4 10.3,-6 14.5,-8.1 4.1,-2.1 13.1,-5.7 20,-8 9.8,-3.3 14.3,-4.3 21.5,-4.7 6.3,-0.3 11,0.1 16,1.2 3.8,0.9 9.2,2.8 12,4.2 2.7,1.4 7,4.2 9.4,6.2 2.4,2 6.1,5.9 8.1,8.7 2.3,3.2 7,13.6 13.3,29.5 5.3,13.5 11.2,27.2 13.2,30.5 2,3.3 4.8,7.3 6.3,8.8 1.5,1.6 4.3,3.7 6.4,4.8 2.5,1.3 5.8,1.9 10,1.9 3.4,0 8.1,-0.6 10.3,-1.3 2.2,-0.7 5.9,-3 8.2,-5.2 2.3,-2.2 4.2,-4.7 4.2,-5.5 0,-0.8 3.5,-4.9 7.8,-9.1 4.3,-4.2 10.7,-10.1 14.3,-13.1 3.5,-2.9 15.5,-12.2 26.5,-20.5 11,-8.3 23.8,-18.4 28.5,-22.5 4.6,-4.1 11.4,-10.7 15,-14.7 4,-4.5 8.4,-8.3 11.5,-9.9 3.7,-1.9 6.9,-2.7 13,-3 q 8,-0.4 15,1.2 c 3.8,0.9 9.6,3.1 12.9,4.9 3.2,1.7 7.4,5 9.3,7.2 1.9,2.2 4.1,5.2 4.8,6.7 0.8,1.5 2.8,7.6 4.5,13.5 1.6,5.9 4.6,18.7 6.6,28.3 1.9,9.8 6.3,26.3 9.9,37.5 3.5,11 7.4,21.5 8.7,23.4 1.2,1.9 3.8,4.4 5.8,5.5 3,1.8 5.1,2.1 15,2 8.6,0 13,-0.6 17.5,-2 3.3,-1.1 8.9,-3.7 12.5,-5.7 3.5,-2.1 12.8,-8.1 20.6,-13.5 9.8,-6.8 15.4,-11.4 18.4,-15.2 2.4,-3 8.6,-9.8 13.9,-15 5.3,-5.2 15.1,-14.7 22,-21 6.8,-6.3 14.7,-14.4 17.6,-18 2.9,-3.6 9,-13 13.7,-21 4.6,-8 12.7,-22.4 17.9,-31.9 7.7,-14.4 10,-17.9 13.4,-20.1 2.2,-1.5 8.9,-5.6 15,-9 6,-3.5 13.7,-7.6 17,-9.2 3.3,-1.5 7.3,-2.8 9,-2.9 1.6,0 4.2,0.9 5.7,2 1.5,1.2 3.5,4.2 4.5,6.8 1.5,4.2 1.8,8.7 1.7,37.8 0,26.1 -0.4,34.4 -1.6,40 -1.5,6.6 -1.5,7.3 0.3,12.5 1.8,4.9 1.8,6.1 0.7,11.5 -0.8,4.3 -1,11.8 -0.5,26.5 0.4,11.3 1.1,25.4 1.7,31.5 0.6,6 1.9,15 2.9,20 1,4.9 2.7,11.1 3.9,13.7 1.2,2.6 3.3,5.5 4.7,6.3 2.3,1.4 2.9,1.3 8,-1 3.5,-1.6 7.9,-5 12.1,-9.3 3.7,-3.7 9.5,-10.3 12.9,-14.7 3.4,-4.4 10.2,-14.1 15.2,-21.5 4.9,-7.4 14.6,-23 21.5,-34.5 6.9,-11.6 15.8,-26.6 19.7,-33.5 4,-6.9 11.3,-20.8 16.4,-31 5.1,-10.2 10.6,-23 12.4,-28.5 1.7,-5.5 4.1,-14.1 5.2,-19 1.2,-5 3.7,-12.3 5.6,-16.3 1.9,-4 5.6,-9.5 8.2,-12.3 2.6,-2.8 6.1,-5.8 7.8,-6.7 1.6,-0.9 4.8,-2.1 7,-2.8 2.2,-0.7 6.5,-1.3 9.7,-1.4 z" />
    <path
       id="Path 3"
       fill-rule="evenodd"
       class="s1"
       d="m 7089,1 h 1173.5 l 224.4,791.8 c 123.4,435.4 224.7,792.2 225.2,792.7 0.5,0.6 1.2,-0.7 1.8,-3 0.6,-2.2 105.2,-358.8 463.8,-1581 L 10371,1 v 361 l -79.7,0.4 c -66.8,0.3 -81.8,0.6 -92.3,2 -6.9,0.9 -16.1,2.3 -20.5,3.1 -4.4,0.9 -11.6,2.5 -16,3.6 -4.4,1.1 -12.3,3.7 -17.5,5.6 -5.2,2 -11.7,4.7 -14.5,6 -2.7,1.4 -8.6,4.9 -13,7.8 -4.4,2.9 -11.1,8.4 -14.9,12.1 -3.8,3.8 -9,10.1 -11.6,13.9 -2.6,3.9 -6.3,10.2 -8.3,14 -1.9,3.9 -5.1,11.7 -7.1,17.5 -2.1,5.8 -4.8,14.8 -6.1,20 -1.3,5.2 -3.3,14.9 -4.4,21.5 -1.1,6.6 -2.9,19.4 -3.8,28.5 -1.7,15.6 -1.8,57.2 -1.8,800.5 0,639 0.2,787 1.3,800 0.7,8.8 2,20.9 2.9,27 0.8,6.1 2.6,14.7 3.9,19.3 1.3,4.5 3.8,11 5.5,14.5 1.7,3.4 5.2,9.4 7.8,13.2 2.5,3.8 7.7,10.3 11.6,14.4 3.8,4 9.7,9.3 13,11.6 3.3,2.4 10,6.3 15,8.8 5,2.5 13.5,6.1 19,8 5.5,1.9 15.2,4.6 21.5,6.1 6.3,1.4 16.9,3.3 23.5,4.2 10.3,1.4 24.4,1.7 186.5,2.4 v 361 H 9125 v -361 h 56.3 c 30.9,0 67,-0.5 80.2,-1 13.2,-0.6 30.8,-1.7 39,-2.5 8.3,-0.9 20.2,-2.4 26.5,-3.5 6.3,-1.1 15.8,-3.1 21,-4.5 5.2,-1.4 13.5,-4.5 18.5,-6.8 5,-2.4 12.4,-6.6 16.5,-9.4 4.1,-2.9 10.4,-8 14.1,-11.5 3.6,-3.5 8.7,-9.2 11.4,-12.8 2.7,-3.6 6.8,-10.1 9.1,-14.5 2.3,-4.4 5.6,-12.4 7.3,-17.7 1.7,-5.4 4,-14.9 5.1,-21 1.1,-6.2 2.7,-17.6 3.5,-25.3 0.9,-7.7 2,-27.3 2.5,-43.5 0.6,-17.2 1,-362.3 1,-824.8 0,-437.3 -0.3,-795.2 -0.7,-795.2 -0.5,0 -142.1,483.4 -314.7,1074.2 C 8949,2119.1 8807.3,2604 8806,2609 l -359.4,-0.5 -303.8,-1040 c -167,-572 -303.9,-1041 -304.2,-1042.2 -0.4,-1.3 -1,-2.3 -1.6,-2.3 -0.7,0 -1,263.6 -1,788.8 0,512.7 0.4,794.2 1,804.5 0.6,8.6 1.9,20.3 3,26 1.1,5.6 3.3,14 4.9,18.7 1.6,4.7 3.7,10.3 4.6,12.5 0.9,2.2 4.1,7.7 7.1,12.3 3,4.5 8.7,11.6 12.7,15.8 3.9,4.2 10.3,10 14.2,12.8 3.9,2.9 10.1,7.1 14,9.3 3.9,2.3 10.8,5.7 15.5,7.6 4.7,2 12.8,4.7 18,6 5.2,1.4 14,3.3 19.5,4.2 5.5,0.9 16.3,2.3 24,3.2 10.9,1.2 31.9,1.6 177.5,2.3 v 361 H 7089 v -361 l 74.8,-0.4 c 43.5,-0.2 80.1,-0.9 87.7,-1.5 7.1,-0.6 19.8,-2.1 28,-3.2 8.3,-1.1 19.9,-3.3 26,-4.8 6.1,-1.6 14.1,-4.1 18,-5.6 3.9,-1.5 9.9,-4.5 13.5,-6.5 3.6,-2.1 9.9,-6.4 14,-9.7 4.1,-3.3 10,-8.8 13.1,-12.4 3.1,-3.5 7.4,-9.1 9.6,-12.4 2.2,-3.3 5.8,-9.6 8,-14 2.3,-4.4 5.3,-11.8 6.7,-16.5 1.5,-4.7 3.8,-13.9 5.1,-20.5 1.3,-6.6 3.1,-18.1 3.9,-25.5 0.8,-7.4 2,-20.7 2.6,-29.5 0.7,-10.8 1,-265.8 1,-785.5 0,-494.2 -0.4,-775.6 -1,-786.5 -0.5,-9.3 -1.7,-23.1 -2.6,-30.5 -0.8,-7.4 -2.5,-17.8 -3.6,-23 -1.1,-5.2 -3.2,-12.6 -4.5,-16.5 -1.4,-3.8 -3.9,-9.7 -5.5,-13 -1.7,-3.3 -5.5,-9.7 -8.4,-14.2 -3,-4.6 -8.7,-11.8 -12.8,-16 -4,-4.3 -10.9,-10.3 -15.2,-13.3 -4.4,-3 -11.5,-7.1 -15.9,-9.1 -4.4,-2.1 -12.7,-5.1 -18.5,-6.7 -5.8,-1.6 -15,-3.7 -20.5,-4.6 -5.5,-0.9 -14.1,-2.1 -19,-2.7 -5.7,-0.7 -41.4,-1.3 -184.5,-1.9 z M 5597.5,1248.1 5686,1248 v 542.8 c 0,373.1 0.3,547.7 1.1,558.7 0.5,8.8 1.6,19.2 2.3,23 0.8,3.9 2.3,8.9 3.5,11.3 1.1,2.3 4,6.1 6.4,8.5 2.3,2.4 6.7,5.5 9.7,7 3,1.4 9.8,3.4 15,4.3 7.6,1.3 18.3,1.7 98,2.4 v 176 l -9.2,0.5 c -5.1,0.3 -89.4,3.2 -187.3,6.5 -97.9,3.3 -182.6,6.2 -198.5,7 v -93 l -19.2,12.3 c -10.6,6.8 -24.7,15.5 -31.3,19.4 -6.6,3.8 -18.7,10.6 -27,15.1 -8.2,4.4 -21.5,11.1 -29.5,14.7 -8,3.7 -19.9,8.9 -26.5,11.5 -6.6,2.6 -17.1,6.4 -23.2,8.4 -6.2,2 -17.3,5.2 -24.5,7.1 -7.3,1.9 -19.4,4.5 -26.8,5.9 -7.4,1.4 -20,3.3 -28,4.3 -10.8,1.3 -21.7,1.7 -42.5,1.7 -20.9,0 -31.6,-0.4 -42,-1.8 -7.7,-0.9 -18.7,-2.6 -24.5,-3.7 -5.8,-1.1 -16.4,-3.5 -23.5,-5.4 -7.1,-1.9 -18.2,-5.2 -24.5,-7.4 -6.3,-2.1 -16.9,-6.2 -23.5,-9.1 -6.6,-2.8 -17.5,-8 -24.2,-11.5 -6.8,-3.6 -17.1,-9.5 -23,-13.1 -6,-3.7 -15.5,-10.1 -21.3,-14.3 -5.8,-4.2 -14.6,-10.9 -19.5,-15 -4.9,-4.1 -14.1,-12.5 -20.4,-18.6 -6.2,-6 -15.5,-15.7 -20.5,-21.5 -5.1,-5.8 -12.4,-14.5 -16.2,-19.5 -3.9,-4.9 -10.2,-13.5 -14.1,-19 -3.8,-5.5 -10,-14.9 -13.8,-21 -3.8,-6 -10.7,-18 -15.4,-26.5 -4.6,-8.5 -11.5,-22 -15.2,-30 -3.6,-8 -9.1,-20.8 -12.2,-28.5 -3,-7.7 -7.2,-18.9 -9.2,-25 -2,-6 -5.4,-17.1 -7.5,-24.5 -2.1,-7.4 -5.2,-19.6 -6.8,-27 -1.7,-7.4 -4.3,-20.2 -5.7,-28.5 -1.4,-8.2 -3.4,-22.9 -4.5,-32.5 -1.1,-9.6 -2.5,-29.2 -3.2,-43.5 -0.9,-20.1 -0.9,-31.9 0,-52 0.6,-14.3 2.1,-34.1 3.2,-44 1.2,-9.9 3.2,-24.3 4.5,-32 1.3,-7.7 3.7,-20.3 5.5,-28 1.7,-7.7 5.1,-21.1 7.5,-29.7 2.5,-8.7 6.9,-22.7 9.9,-31 3,-8.4 8.5,-22.3 12.1,-30.8 3.7,-8.5 9.3,-20.7 12.5,-27 3.2,-6.3 9.2,-17.6 13.5,-25 4.2,-7.4 11.5,-19.3 16.2,-26.5 4.7,-7.1 12.2,-17.9 16.7,-24 4.5,-6 12.5,-15.9 17.6,-22 5.2,-6 14.7,-16.2 21,-22.5 6.4,-6.3 17,-16 23.5,-21.5 6.6,-5.5 16.1,-12.9 21,-16.5 4.9,-3.6 14.6,-10 21.5,-14.3 6.9,-4.4 20.8,-12 31,-17.1 10.2,-5.1 24.8,-11.6 32.5,-14.5 7.7,-2.9 20.8,-7.2 29,-9.6 8.3,-2.4 20.9,-5.5 28,-6.9 7.1,-1.4 17.5,-3.2 23,-4 5.5,-0.8 15.6,-2 22.5,-2.7 6.9,-0.6 23.5,-1.2 37,-1.2 13.5,0 30.6,0.6 38,1.2 7.4,0.7 19.6,2.1 27,3.2 7.4,1.1 19.1,3.1 26,4.5 6.9,1.4 18.7,4.4 26.3,6.5 7.5,2.1 19.4,6 26.5,8.5 7,2.6 19,7.3 26.7,10.6 7.7,3.3 23.8,10.9 35.8,16.9 11.9,6 21.9,10.9 22.2,10.9 0.3,0 0.4,-48.3 0,-214.5 L 5263,1501 v -175.5 l 17.7,-1.8 c 9.8,-1 30.2,-3.3 45.3,-5.3 15.1,-1.9 39.9,-5.5 55,-8 15.1,-2.5 34.9,-6.1 44,-8 9.1,-1.9 23.7,-5.3 32.5,-7.6 8.8,-2.2 24.8,-6.7 35.5,-9.9 10.7,-3.2 28.1,-8.7 38.5,-12.2 10.4,-3.6 26.9,-9.4 36.5,-13.1 9.6,-3.6 20.2,-7.6 23.5,-9 z m -383,609.5 c -5.5,1.4 -14.1,4.1 -19,6 -4.9,2 -13.3,6 -18.5,8.9 -5.2,2.9 -12.6,7.6 -16.5,10.3 -3.9,2.7 -11,8.7 -15.9,13.3 -4.9,4.6 -11.5,11.5 -14.6,15.4 -3.2,3.8 -8.5,11 -11.8,16 -3.3,4.9 -8.5,13.7 -11.6,19.5 -3,5.8 -7.5,15.2 -9.9,21 -2.4,5.8 -6.1,15.7 -8.1,22 -2.1,6.3 -5.1,16.9 -6.7,23.5 -1.6,6.6 -4,18.7 -5.4,27 -1.4,8.2 -3.2,22.2 -4,31 -0.8,8.8 -1.8,26.1 -2.1,38.5 -0.4,13.7 -0.2,30.2 0.5,42 0.7,10.7 1.9,24.7 2.6,31 0.8,6.3 2.2,15.5 3,20.5 0.9,4.9 2.7,14.2 4.1,20.5 1.4,6.3 5.2,19.4 8.3,29 3.2,9.6 8.3,22.9 11.2,29.5 3,6.6 8.7,17.4 12.6,24 3.9,6.6 10.5,16.6 14.7,22.2 4.2,5.7 11.1,13.8 15.4,18.1 4.2,4.3 11.3,10.5 15.7,13.8 4.4,3.2 12.3,8.1 17.5,10.8 5.2,2.7 13.1,6.1 17.5,7.6 4.4,1.5 11.8,3.6 16.5,4.6 6.8,1.5 12.6,1.9 29.5,1.9 15.9,0 23.2,-0.4 30,-1.8 4.9,-0.9 14.9,-3.6 22,-5.9 8.2,-2.6 18.9,-7.2 29,-12.3 8.8,-4.5 22.8,-12.1 31,-17 8.3,-4.8 21.3,-12.7 29,-17.4 l 14,-8.7 c 0,-306.4 -0.3,-345.2 -1.3,-353.9 -0.7,-6.1 -2.1,-14.8 -3.2,-19.5 -1,-4.7 -3.3,-12.3 -5.1,-17 -1.8,-4.7 -6,-12.5 -9.3,-17.5 -3.4,-4.9 -9.7,-12.6 -14.2,-17 -4.4,-4.4 -12.3,-11 -17.5,-14.7 -5.2,-3.7 -14.6,-9.4 -20.9,-12.7 -6.3,-3.2 -15.6,-7.3 -20.5,-8.9 -4.9,-1.7 -13.5,-4 -19,-5.2 -7.4,-1.6 -14.6,-2.2 -27.5,-2.5 -9.6,-0.2 -20.6,0 -24.5,0.6 -3.9,0.5 -11.5,2.1 -17,3.5 z m 1222,-203.9 c 11,0.2 26.3,0.8 34,1.4 7.7,0.5 21,1.9 29.5,3 8.5,1.1 21.4,3.1 28.5,4.5 7.1,1.4 18.4,3.9 25,5.5 6.6,1.6 17.9,4.8 25,7 7.1,2.3 19.8,6.7 28,10 8.3,3.2 23.1,9.9 33,14.8 9.9,4.9 23.1,12 29.3,15.8 6.2,3.7 16.7,10.7 23.5,15.5 6.7,4.8 16.7,12.4 22.2,16.9 5.5,4.6 17.2,15.5 26,24.3 8.9,8.9 20.6,21.7 26.1,28.6 5.5,6.9 14.3,19 19.6,27 5.3,8 12.9,20.3 16.9,27.5 4,7.1 10.4,19.7 14.2,28 3.8,8.2 9.5,21.5 12.7,29.5 3.2,8 8.3,22.4 11.4,32 3.2,9.6 7.3,23.8 9.2,31.5 2,7.7 4.7,19.4 6,26 1.3,6.6 3.1,17.4 3.9,24 0.8,6.6 1.9,19.6 2.4,29 0.6,9.3 1.4,31.3 2.6,80.5 H 6254 v 8.5 c 0,4.7 0.7,15.1 1.6,23.2 0.8,8.2 2.6,20.6 3.9,27.8 1.3,7.1 4,18.4 5.9,25 1.8,6.6 5.1,16.5 7.1,22 2.1,5.5 6,14.7 8.7,20.5 2.7,5.8 7.5,14.8 10.6,20 3.1,5.2 9.7,14.9 14.7,21.5 4.9,6.6 14.8,17.9 22,25 7.1,7.2 17.3,16.2 22.5,20.2 5.2,3.9 13.6,9.7 18.5,12.8 4.9,3.1 13.3,7.7 18.5,10.2 5.2,2.5 13.8,6.1 19,8 5.2,1.9 13.6,4.5 18.5,5.8 4.9,1.3 13.1,3 18,3.9 4.9,0.9 15.8,2.1 24,2.7 10.8,0.7 18.8,0.7 28.5,0 7.4,-0.6 17.6,-1.8 22.5,-2.7 4.9,-0.8 14.2,-2.8 20.5,-4.4 6.3,-1.6 17.4,-4.9 24.5,-7.4 7.1,-2.4 17.9,-6.5 24,-9.1 6.1,-2.5 18.6,-8.5 28,-13.3 9.4,-4.9 22.9,-12.5 30,-17.1 7.1,-4.5 18.1,-11.9 24.4,-16.4 6.2,-4.5 16.9,-12.7 23.6,-18.2 6.7,-5.5 18.7,-15.9 26.6,-23.1 7.9,-7.3 19.2,-18.2 25.2,-24.3 5.9,-6.1 11.1,-11 11.5,-10.9 0.5,0.2 28.6,28.3 62.5,62.5 55.8,56.3 61.6,62.5 60.5,64.2 -0.7,1 -7.2,8.3 -14.5,16.2 -7.2,7.9 -22.9,24.1 -35,36 -12,11.8 -25.9,25.1 -30.8,29.5 -4.9,4.4 -14.6,12.6 -21.5,18.4 -6.9,5.7 -18.8,15.1 -26.5,20.8 -7.7,5.8 -19.2,14 -25.5,18.2 -6.3,4.2 -16.2,10.6 -22,14.2 -5.8,3.5 -16.8,9.9 -24.5,14.1 -7.7,4.2 -20.7,10.7 -29,14.5 -8.2,3.8 -21.3,9.4 -29,12.4 -7.7,3.1 -20.3,7.6 -28,10.1 -7.7,2.5 -18.9,5.9 -25,7.6 -6.1,1.7 -17.1,4.4 -24.5,6 -7.4,1.7 -20.2,4.1 -28.5,5.5 -8.2,1.3 -21.3,3.1 -29,4 -7.7,0.9 -21.4,2 -30.5,2.6 -9.1,0.5 -24.4,1 -34,1 -9.6,0 -24.9,-0.5 -34,-1 -9.1,-0.6 -22.6,-1.8 -30,-2.6 -7.4,-0.8 -19.8,-2.6 -27.5,-3.9 -7.7,-1.3 -20.1,-3.7 -27.5,-5.4 -7.4,-1.6 -20.6,-5 -29.2,-7.5 -8.7,-2.6 -22,-6.9 -29.5,-9.7 -7.6,-2.8 -19.4,-7.6 -26.3,-10.6 -6.9,-3.1 -16.3,-7.5 -21,-9.8 -4.7,-2.3 -14.6,-7.7 -22,-12 -7.4,-4.3 -18.7,-11.2 -25,-15.3 -6.3,-4.2 -17.6,-12.2 -25,-17.8 -7.4,-5.6 -17.6,-13.6 -22.5,-17.9 -4.9,-4.2 -14.4,-12.7 -20.9,-18.9 -6.6,-6.1 -17.6,-17.2 -24.4,-24.6 -6.8,-7.4 -17.5,-19.8 -23.7,-27.5 -6.1,-7.7 -15.3,-19.9 -20.3,-27 -5,-7.2 -12.5,-18.6 -16.6,-25.5 -4.1,-6.9 -10.9,-19 -15,-27 -4.1,-8 -10.2,-21 -13.6,-29 -3.4,-8 -8.8,-22.4 -12.1,-32 -3.2,-9.6 -7.6,-24.7 -9.8,-33.5 -2.2,-8.8 -4.9,-21 -6,-27 -1.2,-6.1 -2.8,-16 -3.6,-22 -0.9,-6.1 -2.2,-18.4 -3,-27.5 -0.9,-9.6 -1.5,-28.2 -1.5,-44.5 0,-16.2 0.6,-35 1.5,-44.5 0.8,-9.1 2.4,-22.8 3.5,-30.5 1.2,-7.7 3.3,-19.4 4.6,-26 1.3,-6.6 3.8,-17.2 5.5,-23.5 1.7,-6.3 4.9,-17.1 7.1,-24 2.2,-6.9 6.6,-19.3 9.9,-27.5 3.2,-8.3 10.1,-23.6 15.2,-34 5.2,-10.5 12.5,-24.2 16.2,-30.5 3.7,-6.3 11.2,-18 16.6,-26 5.4,-8 14.1,-19.9 19.4,-26.5 5.3,-6.6 14.6,-17.6 20.8,-24.4 6.2,-6.8 16.4,-17.2 22.7,-23 6.3,-5.9 15.3,-13.8 20,-17.7 4.7,-3.9 13,-10.5 18.5,-14.6 5.5,-4.1 15.9,-11.4 23,-16.1 7.1,-4.7 19.1,-12 26.5,-16.3 7.4,-4.2 20.7,-11.2 29.5,-15.4 8.8,-4.3 20.7,-9.6 26.5,-12 5.8,-2.3 16.1,-6.3 23,-8.7 6.9,-2.4 18.6,-6.2 26,-8.3 7.4,-2.2 20.3,-5.5 28.5,-7.4 8.3,-1.9 21.8,-4.6 30,-6 8.3,-1.4 20.9,-3.2 28,-4 7.1,-0.9 19.8,-2 28,-2.6 8.3,-0.6 19.3,-1.2 24.5,-1.4 5.2,-0.2 18.5,-0.1 29.5,0.1 z m -35.2,178.1 c -5.4,0.8 -14.7,3 -20.8,4.9 -6.1,1.9 -15.5,5.6 -21,8.3 -5.5,2.6 -14.9,8 -21,12.1 -7.5,5 -14.7,11 -22.6,18.8 -7.5,7.6 -13.8,15 -18.1,21.6 -3.7,5.5 -8.7,14.3 -11.3,19.5 -2.5,5.2 -6.3,14.9 -8.5,21.5 -2.1,6.6 -5,17.6 -6.3,24.5 -1.4,6.9 -2.8,14.2 -3.1,16.2 l -0.6,3.8 h 306 c 0,-4.3 -0.9,-10.5 -1.9,-16.5 -1.1,-6.1 -2.6,-13.9 -3.4,-17.5 -0.9,-3.6 -3.2,-11.7 -5.2,-18 -2.1,-6.3 -5.7,-15.6 -8,-20.5 -2.4,-5 -6.6,-12.4 -9.3,-16.5 -2.8,-4.1 -7.9,-10.8 -11.4,-14.8 -3.4,-4 -9.4,-10 -13.3,-13.3 -3.9,-3.3 -10.6,-8.5 -15,-11.4 -4.4,-3 -12.1,-7.4 -17,-9.9 -4.9,-2.4 -13.1,-5.8 -18,-7.6 -4.9,-1.7 -13.5,-4 -19,-5.1 -5.5,-1.1 -15.4,-2.2 -22,-2.4 -6.6,-0.2 -13.7,-0.1 -15.7,0.2 -2,0.3 -8.1,1.2 -13.5,2.1 z" />
  </g>
  <metadata
     id="metadata832">
    <rdf:RDF>
      <cc:Work
         rdf:about="">
        <dc:title>universidad_de_managua</dc:title>
      </cc:Work>
    </rdf:RDF>
  </metadata>
</svg>
